<?xml version="1.0" encoding="utf-8"?>
<!-- Generator: Adobe Illustrator 16.0.0, SVG Export Plug-In . SVG Version: 6.00 Build 0)  -->
<!DOCTYPE svg PUBLIC "-//W3C//DTD SVG 1.1//EN" "http://www.w3.org/Graphics/SVG/1.1/DTD/svg11.dtd">
<svg version="1.1" id="Layer_1" xmlns="http://www.w3.org/2000/svg" xmlns:xlink="http://www.w3.org/1999/xlink" x="0px" y="0px"
	 width="36px" height="30px" viewBox="0 0 36 30" style="enable-background:new 0 0 36 30;" xml:space="preserve">
<style type="text/css">
<![CDATA[
	.st0{fill:#8893A5;}
]]>
</style>
<path class="st0" d="M31.7,12.2V8.7c0-1.6-1.2-2.8-2.8-2.8h-9.2h-1.4l-4.2-4.2H7.8c-2.1,0-3.5,1.4-3.5,3.5v7H2.1v2.1l3.9,13
	c0.1,0.4,1.3,1.1,1.7,1.1h21.1c0.5,0,1.3-0.6,1.4-1.1l3.5-13v-2.1H31.7z M6.4,5.9c0-1.3,0.7-2.1,2.1-2.1h4.9L17.6,8h2.1h8.5
	c0.9,0,1.4,0.6,1.4,1.4v2.8H6.4V5.9z M28.2,26.2H7.8L4.3,14.3h27.5L28.2,26.2z"/>
</svg>
