<?xml version="1.0" encoding="utf-8"?>
<!-- Generator: Adobe Illustrator 16.0.0, SVG Export Plug-In . SVG Version: 6.00 Build 0)  -->
<!DOCTYPE svg PUBLIC "-//W3C//DTD SVG 1.1//EN" "http://www.w3.org/Graphics/SVG/1.1/DTD/svg11.dtd">
<svg version="1.1" id="Layer_1" xmlns="http://www.w3.org/2000/svg" xmlns:xlink="http://www.w3.org/1999/xlink" x="0px" y="0px"
	 width="224.7px" height="270px" viewBox="0 0 224.7 270" style="enable-background:new 0 0 224.7 270;" xml:space="preserve">
<style type="text/css">
<![CDATA[
	.st0{fill:#8893A6;}
	.st1{fill:#2F2FB6;}
	.st2{fill:#0000FF;}
	.st3{fill:#D4DDDE;}
]]>
</style>
<g>
	<path class="st2" d="M16,159.6c0,4.4-3.6,8-8,8l0,0c-4.4,0-8-3.6-8-8V119c0-4.4,3.6-8,8-8l0,0c4.4,0,8,3.6,8,8V159.6z"/>
	<path class="st2" d="M44,159.6c0,4.4-3.6,8-8,8l0,0c-4.4,0-8-3.6-8-8v-84c0-4.4,3.6-8,8-8l0,0c4.4,0,8,3.6,8,8V159.6z"/>
	<path class="st2" d="M72,159.6c0,4.4-3.6,8-8,8l0,0c-4.4,0-8-3.6-8-8V119c0-4.4,3.6-8,8-8l0,0c4.4,0,8,3.6,8,8V159.6z"/>
	<g>
		<path class="st3" d="M102.7,159.6c0,4.4-3.6,8-8,8l0,0c-4.4,0-8-3.6-8-8V101c0-4.4,3.6-8,8-8l0,0c4.4,0,8,3.6,8,8V159.6z"/>
		<path class="st3" d="M133.3,159.6c0,4.4-3.6,8-8,8l0,0c-4.4,0-8-3.6-8-8V125c0-4.4,3.6-8,8-8l0,0c4.4,0,8,3.6,8,8V159.6z"/>
		<path class="st3" d="M163.7,159.6c0,4.4-3.6,8-8,8l0,0c-4.4,0-8-3.6-8-8V137c0-4.4,3.6-8,8-8l0,0c4.4,0,8,3.6,8,8V159.6z"/>
	</g>
	<g>
		<path class="st3" d="M208.7,159.6c0,4.4,3.6,8,8,8l0,0c4.4,0,8-3.6,8-8V101c0-4.4-3.6-8-8-8l0,0c-4.4,0-8,3.6-8,8V159.6z"/>
		<path class="st3" d="M178,159.6c0,4.4,3.6,8,8,8l0,0c4.4,0,8-3.6,8-8V125c0-4.4-3.6-8-8-8l0,0c-4.4,0-8,3.6-8,8V159.6z"/>
		<path class="st3" d="M147.7,159.6c0,4.4,3.6,8,8,8l0,0c4.4,0,8-3.6,8-8V137c0-4.4-3.6-8-8-8l0,0c-4.4,0-8,3.6-8,8V159.6z"/>
	</g>
	<g>
		<path class="st0" d="M11.4,54.9v0.8h-9l1,2.7H2.7L1.4,55v-0.1H11.4z"/>
		<path class="st0" d="M11.4,44.7v6.2h-0.6l-3.9-3.4c-0.7-0.6-1.2-1-1.6-1.2S4.5,46,4.1,46c-0.6,0-1.1,0.2-1.5,0.6
			C2.2,46.9,2,47.5,2,48.1c0,0.7,0.2,1.2,0.6,1.6c0.4,0.4,1,0.6,1.7,0.6v0.8c-0.6,0-1.1-0.1-1.5-0.4c-0.5-0.3-0.8-0.6-1.1-1.1
			c-0.3-0.5-0.4-1-0.4-1.6c0-0.9,0.2-1.6,0.7-2.1c0.5-0.5,1.1-0.8,2-0.8c0.5,0,1,0.1,1.5,0.4c0.6,0.3,1.2,0.8,2.1,1.5l3.1,2.8v-5.2
			H11.4z"/>
		<path class="st0" d="M7.3,37.2c1.4,0,2.5,0.3,3.2,0.8c0.7,0.5,1.1,1.3,1.1,2.3c0,1-0.4,1.7-1.1,2.3c-0.7,0.5-1.8,0.8-3.1,0.8H5.6
			c-1.4,0-2.5-0.3-3.2-0.8s-1.1-1.3-1.1-2.3c0-1,0.3-1.7,1-2.3c0.7-0.5,1.7-0.8,3.1-0.8H7.3z M5.5,38c-1.1,0-2,0.2-2.6,0.6
			C2.3,38.9,2,39.5,2,40.2c0,0.7,0.3,1.3,0.9,1.7c0.6,0.4,1.4,0.6,2.5,0.6h2c1.1,0,2-0.2,2.6-0.6c0.6-0.4,0.9-0.9,0.9-1.7
			c0-0.7-0.3-1.3-0.9-1.7S8.5,38,7.4,38H5.5z"/>
		<path class="st0" d="M10.9,35.4c-0.2,0-0.3-0.1-0.4-0.2c-0.1-0.1-0.2-0.2-0.2-0.4c0-0.2,0.1-0.3,0.2-0.4c0.1-0.1,0.2-0.2,0.4-0.2
			s0.3,0.1,0.4,0.2c0.1,0.1,0.2,0.2,0.2,0.4c0,0.2-0.1,0.3-0.2,0.4C11.2,35.3,11.1,35.4,10.9,35.4z"/>
		<path class="st0" d="M7.3,26.1c1.4,0,2.5,0.3,3.2,0.8c0.7,0.5,1.1,1.3,1.1,2.3c0,1-0.4,1.7-1.1,2.3c-0.7,0.5-1.8,0.8-3.1,0.8H5.6
			c-1.4,0-2.5-0.3-3.2-0.8s-1.1-1.3-1.1-2.3c0-1,0.3-1.7,1-2.3c0.7-0.5,1.7-0.8,3.1-0.8H7.3z M5.5,26.9c-1.1,0-2,0.2-2.6,0.6
			C2.3,27.8,2,28.4,2,29.1c0,0.7,0.3,1.3,0.9,1.7c0.6,0.4,1.4,0.6,2.5,0.6h2c1.1,0,2-0.2,2.6-0.6c0.6-0.4,0.9-0.9,0.9-1.7
			c0-0.7-0.3-1.3-0.9-1.7s-1.4-0.6-2.6-0.6H5.5z"/>
		<path class="st0" d="M7.3,18.3c1.4,0,2.5,0.3,3.2,0.8c0.7,0.5,1.1,1.3,1.1,2.3c0,1-0.4,1.7-1.1,2.3c-0.7,0.5-1.8,0.8-3.1,0.8H5.6
			c-1.4,0-2.5-0.3-3.2-0.8s-1.1-1.3-1.1-2.3c0-1,0.3-1.7,1-2.3c0.7-0.5,1.7-0.8,3.1-0.8H7.3z M5.5,19.1c-1.1,0-2,0.2-2.6,0.6
			C2.3,20.1,2,20.6,2,21.4c0,0.7,0.3,1.3,0.9,1.7c0.6,0.4,1.4,0.6,2.5,0.6h2c1.1,0,2-0.2,2.6-0.6c0.6-0.4,0.9-0.9,0.9-1.7
			c0-0.7-0.3-1.3-0.9-1.7s-1.4-0.6-2.6-0.6H5.5z"/>
		<path class="st0" d="M7.3,10.6c1.4,0,2.5,0.3,3.2,0.8c0.7,0.5,1.1,1.3,1.1,2.3c0,1-0.4,1.7-1.1,2.3c-0.7,0.5-1.8,0.8-3.1,0.8H5.6
			c-1.4,0-2.5-0.3-3.2-0.8s-1.1-1.3-1.1-2.3c0-1,0.3-1.7,1-2.3c0.7-0.5,1.7-0.8,3.1-0.8H7.3z M5.5,11.4c-1.1,0-2,0.2-2.6,0.6
			C2.3,12.3,2,12.9,2,13.6c0,0.7,0.3,1.3,0.9,1.7c0.6,0.4,1.4,0.6,2.5,0.6h2c1.1,0,2-0.2,2.6-0.6c0.6-0.4,0.9-0.9,0.9-1.7
			c0-0.7-0.3-1.3-0.9-1.7s-1.4-0.6-2.6-0.6H5.5z"/>
		<path class="st1" d="M37.1,54.9v0.8h-9l1,2.7h-0.8L27.1,55v-0.1H37.1z"/>
		<path class="st1" d="M29.7,45.1c0.5,0,1,0.2,1.4,0.5c0.4,0.3,0.7,0.7,0.9,1.2c0.2-0.6,0.5-1,1-1.4s0.9-0.5,1.5-0.5
			c0.9,0,1.5,0.3,2,0.9c0.5,0.6,0.7,1.3,0.7,2.3c0,1-0.2,1.7-0.7,2.3c-0.5,0.6-1.2,0.9-2,0.9c-0.6,0-1.1-0.2-1.5-0.5s-0.8-0.8-1-1.4
			c-0.2,0.5-0.5,0.9-0.9,1.2c-0.4,0.3-0.9,0.4-1.4,0.4c-0.8,0-1.5-0.3-2-0.8C27.3,49.6,27,48.9,27,48s0.2-1.6,0.7-2.1
			C28.3,45.3,28.9,45.1,29.7,45.1z M34.5,45.6c-0.6,0-1.1,0.2-1.5,0.7c-0.4,0.4-0.6,1-0.6,1.7s0.2,1.3,0.6,1.7s0.9,0.7,1.5,0.7
			s1.1-0.2,1.5-0.6c0.4-0.4,0.6-1,0.6-1.7c0-0.7-0.2-1.3-0.6-1.7S35.1,45.6,34.5,45.6z M29.7,45.9c-0.6,0-1,0.2-1.4,0.6
			c-0.4,0.4-0.6,0.9-0.6,1.5c0,0.6,0.2,1.1,0.6,1.5c0.4,0.4,0.8,0.6,1.4,0.6c0.6,0,1.1-0.2,1.4-0.6c0.4-0.4,0.5-0.9,0.5-1.5
			c0-0.6-0.2-1.1-0.5-1.5C30.8,46.1,30.3,45.9,29.7,45.9z"/>
		<path class="st1" d="M32,42.6l-4.9-0.5v-5h0.8v4.3l3.4,0.3c-0.4-0.5-0.5-1.2-0.5-1.9c0-0.9,0.3-1.6,0.9-2.1S33,37,33.9,37
			c1,0,1.9,0.3,2.4,0.8s0.9,1.3,0.9,2.2c0,0.9-0.2,1.6-0.7,2.1c-0.5,0.5-1.2,0.8-2,0.9v-0.8c0.7-0.1,1.2-0.3,1.5-0.7
			c0.3-0.4,0.5-0.9,0.5-1.6c0-0.7-0.2-1.2-0.7-1.6s-1.1-0.5-1.9-0.5c-0.7,0-1.3,0.2-1.8,0.6c-0.5,0.4-0.7,1-0.7,1.7
			c0,0.4,0,0.7,0.1,1c0.1,0.3,0.3,0.6,0.6,0.9L32,42.6z"/>
		<path class="st1" d="M36.6,35.4c-0.2,0-0.3-0.1-0.4-0.2c-0.1-0.1-0.2-0.2-0.2-0.4c0-0.2,0.1-0.3,0.2-0.4c0.1-0.1,0.2-0.2,0.4-0.2
			s0.3,0.1,0.4,0.2c0.1,0.1,0.2,0.2,0.2,0.4c0,0.2-0.1,0.3-0.2,0.4C36.9,35.3,36.8,35.4,36.6,35.4z"/>
		<path class="st1" d="M29.7,26.2c0.5,0,1,0.2,1.4,0.5c0.4,0.3,0.7,0.7,0.9,1.2c0.2-0.6,0.5-1,1-1.4c0.4-0.3,0.9-0.5,1.5-0.5
			c0.9,0,1.5,0.3,2,0.9c0.5,0.6,0.7,1.3,0.7,2.3c0,1-0.2,1.7-0.7,2.3c-0.5,0.6-1.2,0.9-2,0.9c-0.6,0-1.1-0.2-1.5-0.5
			c-0.4-0.3-0.8-0.8-1-1.4c-0.2,0.5-0.5,0.9-0.9,1.2c-0.4,0.3-0.9,0.4-1.4,0.4c-0.8,0-1.5-0.3-2-0.8C27.3,30.7,27,30,27,29.1
			s0.2-1.6,0.7-2.1C28.3,26.5,28.9,26.2,29.7,26.2z M34.5,26.8c-0.6,0-1.1,0.2-1.5,0.7c-0.4,0.4-0.6,1-0.6,1.7
			c0,0.7,0.2,1.3,0.6,1.7s0.9,0.7,1.5,0.7s1.1-0.2,1.5-0.6c0.4-0.4,0.6-1,0.6-1.7c0-0.7-0.2-1.3-0.6-1.7S35.1,26.8,34.5,26.8z
			 M29.7,27c-0.6,0-1,0.2-1.4,0.6c-0.4,0.4-0.6,0.9-0.6,1.5c0,0.6,0.2,1.1,0.6,1.5c0.4,0.4,0.8,0.6,1.4,0.6c0.6,0,1.1-0.2,1.4-0.6
			c0.4-0.4,0.5-0.9,0.5-1.5c0-0.6-0.2-1.1-0.5-1.5C30.8,27.2,30.3,27,29.7,27z"/>
		<path class="st1" d="M32.5,19.2c0.4,0.3,0.8,0.7,1,1.1c0.2,0.4,0.4,0.9,0.4,1.4c0,0.6-0.1,1.1-0.4,1.5s-0.7,0.8-1.2,1
			c-0.5,0.2-1.1,0.4-1.7,0.4c-0.7,0-1.3-0.1-1.8-0.4s-1-0.6-1.3-1.1c-0.3-0.5-0.4-1-0.4-1.6c0-1,0.3-1.8,1-2.3
			c0.7-0.6,1.7-0.8,3-0.8h0.7c1.8,0,3.1,0.4,4,1.1s1.4,1.9,1.4,3.5v0.2l-0.7,0v-0.3c0-1.2-0.4-2.1-1-2.7S33.8,19.2,32.5,19.2z
			 M33.1,21.6c0-0.5-0.2-1-0.5-1.5c-0.3-0.4-0.7-0.7-1.3-0.9h-0.5c-1,0-1.8,0.2-2.3,0.6c-0.6,0.4-0.8,1-0.8,1.7
			c0,0.6,0.3,1.2,0.8,1.6c0.5,0.4,1.2,0.6,2,0.6c0.8,0,1.4-0.2,1.9-0.6C32.9,22.8,33.1,22.2,33.1,21.6z"/>
		<path class="st1" d="M27.6,10.4l9.5,4.3v0.9l-9.3-4.2V17h-0.7v-6.5H27.6z"/>
		<path class="st1" d="M39,8.8l-0.4,0.5c-0.6-0.4-1.1-0.6-1.7-0.6h-1.1V7.9h0.9C37.6,7.9,38.4,8.2,39,8.8z"/>
		<path class="st1" d="M29.7,0.3c0.5,0,1,0.2,1.4,0.5C31.5,1,31.8,1.4,32,1.9c0.2-0.6,0.5-1,1-1.4S33.9,0,34.5,0
			c0.9,0,1.5,0.3,2,0.9c0.5,0.6,0.7,1.3,0.7,2.3c0,1-0.2,1.7-0.7,2.3c-0.5,0.6-1.2,0.9-2,0.9c-0.6,0-1.1-0.2-1.5-0.5S32.2,5,32,4.5
			c-0.2,0.5-0.5,0.9-0.9,1.2c-0.4,0.3-0.9,0.4-1.4,0.4c-0.8,0-1.5-0.3-2-0.8C27.3,4.8,27,4.1,27,3.2s0.2-1.6,0.7-2.1
			C28.3,0.5,28.9,0.3,29.7,0.3z M34.5,0.8c-0.6,0-1.1,0.2-1.5,0.7c-0.4,0.4-0.6,1-0.6,1.7s0.2,1.3,0.6,1.7s0.9,0.7,1.5,0.7
			s1.1-0.2,1.5-0.6c0.4-0.4,0.6-1,0.6-1.7c0-0.7-0.2-1.3-0.6-1.7S35.1,0.8,34.5,0.8z M29.7,1.1c-0.6,0-1,0.2-1.4,0.6
			c-0.4,0.4-0.6,0.9-0.6,1.5c0,0.6,0.2,1.1,0.6,1.5c0.4,0.4,0.8,0.6,1.4,0.6c0.6,0,1.1-0.2,1.4-0.6c0.4-0.4,0.5-0.9,0.5-1.5
			c0-0.6-0.2-1.1-0.5-1.5C30.8,1.3,30.3,1.1,29.7,1.1z"/>
		<path class="st0" d="M62.8,54.9v0.8h-9l1,2.7h-0.8L52.8,55v-0.1H62.8z"/>
		<path class="st0" d="M62.8,44.7v6.2h-0.6l-3.9-3.4c-0.7-0.6-1.2-1-1.6-1.2S55.9,46,55.5,46c-0.6,0-1.1,0.2-1.5,0.6
			c-0.4,0.4-0.6,0.9-0.6,1.5c0,0.7,0.2,1.2,0.6,1.6c0.4,0.4,1,0.6,1.7,0.6v0.8c-0.6,0-1.1-0.1-1.5-0.4c-0.5-0.3-0.8-0.6-1.1-1.1
			c-0.3-0.5-0.4-1-0.4-1.6c0-0.9,0.2-1.6,0.7-2.1c0.5-0.5,1.1-0.8,2-0.8c0.5,0,1,0.1,1.5,0.4c0.6,0.3,1.2,0.8,2.1,1.5l3.1,2.8v-5.2
			H62.8z"/>
		<path class="st0" d="M58.7,37.2c1.4,0,2.5,0.3,3.2,0.8c0.7,0.5,1.1,1.3,1.1,2.3c0,1-0.4,1.7-1.1,2.3c-0.7,0.5-1.8,0.8-3.1,0.8H57
			c-1.4,0-2.5-0.3-3.2-0.8s-1.1-1.3-1.1-2.3c0-1,0.3-1.7,1-2.3c0.7-0.5,1.7-0.8,3.1-0.8H58.7z M56.9,38c-1.1,0-2,0.2-2.6,0.6
			c-0.6,0.4-0.9,0.9-0.9,1.7c0,0.7,0.3,1.3,0.9,1.7s1.4,0.6,2.5,0.6h2c1.1,0,2-0.2,2.6-0.6c0.6-0.4,0.9-0.9,0.9-1.7
			c0-0.7-0.3-1.3-0.9-1.7c-0.6-0.4-1.4-0.6-2.6-0.6H56.9z"/>
		<path class="st0" d="M62.3,35.4c-0.2,0-0.3-0.1-0.4-0.2c-0.1-0.1-0.2-0.2-0.2-0.4s0.1-0.3,0.2-0.4c0.1-0.1,0.2-0.2,0.4-0.2
			s0.3,0.1,0.4,0.2c0.1,0.1,0.2,0.2,0.2,0.4s-0.1,0.3-0.2,0.4C62.6,35.3,62.5,35.4,62.3,35.4z"/>
		<path class="st0" d="M58.7,26.1c1.4,0,2.5,0.3,3.2,0.8c0.7,0.5,1.1,1.3,1.1,2.3c0,1-0.4,1.7-1.1,2.3c-0.7,0.5-1.8,0.8-3.1,0.8H57
			c-1.4,0-2.5-0.3-3.2-0.8s-1.1-1.3-1.1-2.3c0-1,0.3-1.7,1-2.3c0.7-0.5,1.7-0.8,3.1-0.8H58.7z M56.9,26.9c-1.1,0-2,0.2-2.6,0.6
			c-0.6,0.4-0.9,0.9-0.9,1.7c0,0.7,0.3,1.3,0.9,1.7s1.4,0.6,2.5,0.6h2c1.1,0,2-0.2,2.6-0.6c0.6-0.4,0.9-0.9,0.9-1.7
			c0-0.7-0.3-1.3-0.9-1.7c-0.6-0.4-1.4-0.6-2.6-0.6H56.9z"/>
		<path class="st0" d="M58.7,18.3c1.4,0,2.5,0.3,3.2,0.8c0.7,0.5,1.1,1.3,1.1,2.3c0,1-0.4,1.7-1.1,2.3c-0.7,0.5-1.8,0.8-3.1,0.8H57
			c-1.4,0-2.5-0.3-3.2-0.8s-1.1-1.3-1.1-2.3c0-1,0.3-1.7,1-2.3c0.7-0.5,1.7-0.8,3.1-0.8H58.7z M56.9,19.1c-1.1,0-2,0.2-2.6,0.6
			c-0.6,0.4-0.9,0.9-0.9,1.7c0,0.7,0.3,1.3,0.9,1.7s1.4,0.6,2.5,0.6h2c1.1,0,2-0.2,2.6-0.6c0.6-0.4,0.9-0.9,0.9-1.7
			c0-0.7-0.3-1.3-0.9-1.7c-0.6-0.4-1.4-0.6-2.6-0.6H56.9z"/>
		<path class="st0" d="M58.7,10.6c1.4,0,2.5,0.3,3.2,0.8c0.7,0.5,1.1,1.3,1.1,2.3c0,1-0.4,1.7-1.1,2.3c-0.7,0.5-1.8,0.8-3.1,0.8H57
			c-1.4,0-2.5-0.3-3.2-0.8s-1.1-1.3-1.1-2.3c0-1,0.3-1.7,1-2.3c0.7-0.5,1.7-0.8,3.1-0.8H58.7z M56.9,11.4c-1.1,0-2,0.2-2.6,0.6
			c-0.6,0.4-0.9,0.9-0.9,1.7c0,0.7,0.3,1.3,0.9,1.7s1.4,0.6,2.5,0.6h2c1.1,0,2-0.2,2.6-0.6c0.6-0.4,0.9-0.9,0.9-1.7
			c0-0.7-0.3-1.3-0.9-1.7c-0.6-0.4-1.4-0.6-2.6-0.6H56.9z"/>
		<path class="st0" d="M88.5,54.9v0.8h-9l1,2.7h-0.8L78.5,55v-0.1H88.5z"/>
		<path class="st0" d="M81.1,45.1c0.5,0,1,0.2,1.4,0.5c0.4,0.3,0.7,0.7,0.9,1.2c0.2-0.6,0.5-1,1-1.4s0.9-0.5,1.5-0.5
			c0.9,0,1.5,0.3,2,0.9c0.5,0.6,0.7,1.3,0.7,2.3c0,1-0.2,1.7-0.7,2.3c-0.5,0.6-1.2,0.9-2,0.9c-0.6,0-1.1-0.2-1.5-0.5s-0.8-0.8-1-1.4
			c-0.2,0.5-0.5,0.9-0.9,1.2c-0.4,0.3-0.9,0.4-1.4,0.4c-0.8,0-1.5-0.3-2-0.8c-0.5-0.5-0.7-1.2-0.7-2.1s0.2-1.6,0.7-2.1
			C79.7,45.3,80.3,45.1,81.1,45.1z M85.9,45.6c-0.6,0-1.1,0.2-1.5,0.7c-0.4,0.4-0.6,1-0.6,1.7s0.2,1.3,0.6,1.7s0.9,0.7,1.5,0.7
			s1.1-0.2,1.5-0.6c0.4-0.4,0.6-1,0.6-1.7c0-0.7-0.2-1.3-0.6-1.7S86.5,45.6,85.9,45.6z M81.1,45.9c-0.6,0-1,0.2-1.4,0.6
			c-0.4,0.4-0.6,0.9-0.6,1.5c0,0.6,0.2,1.1,0.6,1.5c0.4,0.4,0.8,0.6,1.4,0.6c0.6,0,1.1-0.2,1.4-0.6c0.4-0.4,0.5-0.9,0.5-1.5
			c0-0.6-0.2-1.1-0.5-1.5C82.2,46.1,81.7,45.9,81.1,45.9z"/>
		<path class="st0" d="M83.4,42.6l-4.9-0.5v-5h0.8v4.3l3.4,0.3c-0.4-0.5-0.5-1.2-0.5-1.9c0-0.9,0.3-1.6,0.9-2.1s1.4-0.8,2.3-0.8
			c1,0,1.9,0.3,2.4,0.8s0.9,1.3,0.9,2.2c0,0.9-0.2,1.6-0.7,2.1s-1.2,0.8-2,0.9v-0.8c0.7-0.1,1.2-0.3,1.5-0.7
			c0.3-0.4,0.5-0.9,0.5-1.6c0-0.7-0.2-1.2-0.7-1.6c-0.5-0.4-1.1-0.5-1.9-0.5c-0.7,0-1.3,0.2-1.8,0.6s-0.7,1-0.7,1.7
			c0,0.4,0,0.7,0.1,1c0.1,0.3,0.3,0.6,0.6,0.9L83.4,42.6z"/>
		<path class="st0" d="M88,35.4c-0.2,0-0.3-0.1-0.4-0.2c-0.1-0.1-0.2-0.2-0.2-0.4s0.1-0.3,0.2-0.4c0.1-0.1,0.2-0.2,0.4-0.2
			s0.3,0.1,0.4,0.2c0.1,0.1,0.2,0.2,0.2,0.4s-0.1,0.3-0.2,0.4C88.3,35.3,88.2,35.4,88,35.4z"/>
		<path class="st0" d="M81.1,26.2c0.5,0,1,0.2,1.4,0.5c0.4,0.3,0.7,0.7,0.9,1.2c0.2-0.6,0.5-1,1-1.4s0.9-0.5,1.5-0.5
			c0.9,0,1.5,0.3,2,0.9c0.5,0.6,0.7,1.3,0.7,2.3c0,1-0.2,1.7-0.7,2.3c-0.5,0.6-1.2,0.9-2,0.9c-0.6,0-1.1-0.2-1.5-0.5s-0.8-0.8-1-1.4
			c-0.2,0.5-0.5,0.9-0.9,1.2c-0.4,0.3-0.9,0.4-1.4,0.4c-0.8,0-1.5-0.3-2-0.8c-0.5-0.5-0.7-1.2-0.7-2.1s0.2-1.6,0.7-2.1
			C79.7,26.5,80.3,26.2,81.1,26.2z M85.9,26.8c-0.6,0-1.1,0.2-1.5,0.7c-0.4,0.4-0.6,1-0.6,1.7s0.2,1.3,0.6,1.7s0.9,0.7,1.5,0.7
			s1.1-0.2,1.5-0.6c0.4-0.4,0.6-1,0.6-1.7c0-0.7-0.2-1.3-0.6-1.7S86.5,26.8,85.9,26.8z M81.1,27c-0.6,0-1,0.2-1.4,0.6
			c-0.4,0.4-0.6,0.9-0.6,1.5c0,0.6,0.2,1.1,0.6,1.5c0.4,0.4,0.8,0.6,1.4,0.6c0.6,0,1.1-0.2,1.4-0.6c0.4-0.4,0.5-0.9,0.5-1.5
			c0-0.6-0.2-1.1-0.5-1.5C82.2,27.2,81.7,27,81.1,27z"/>
		<path class="st0" d="M83.9,19.2c0.4,0.3,0.8,0.7,1,1.1c0.2,0.4,0.4,0.9,0.4,1.4c0,0.6-0.1,1.1-0.4,1.5s-0.7,0.8-1.2,1
			s-1.1,0.4-1.7,0.4c-0.7,0-1.3-0.1-1.8-0.4c-0.5-0.3-1-0.6-1.3-1.1c-0.3-0.5-0.4-1-0.4-1.6c0-1,0.3-1.8,1-2.3
			c0.7-0.6,1.7-0.8,3-0.8h0.7c1.8,0,3.1,0.4,4,1.1s1.4,1.9,1.4,3.5v0.2l-0.7,0v-0.3c0-1.2-0.4-2.1-1-2.7S85.2,19.2,83.9,19.2z
			 M84.5,21.6c0-0.5-0.2-1-0.5-1.5c-0.3-0.4-0.7-0.7-1.3-0.9h-0.5c-1,0-1.8,0.2-2.3,0.6c-0.6,0.4-0.8,1-0.8,1.7
			c0,0.6,0.3,1.2,0.8,1.6s1.2,0.6,2,0.6c0.8,0,1.4-0.2,1.9-0.6C84.3,22.8,84.5,22.2,84.5,21.6z"/>
		<path class="st0" d="M79,10.4l9.5,4.3v0.9l-9.3-4.2V17h-0.7v-6.5H79z"/>
		<path class="st0" d="M90.4,8.8L90,9.3c-0.6-0.4-1.1-0.6-1.7-0.6h-1.1V7.9h0.9C89,7.9,89.8,8.2,90.4,8.8z"/>
		<path class="st0" d="M81.1,0.3c0.5,0,1,0.2,1.4,0.5c0.4,0.3,0.7,0.7,0.9,1.2c0.2-0.6,0.5-1,1-1.4S85.3,0,85.9,0
			c0.9,0,1.5,0.3,2,0.9c0.5,0.6,0.7,1.3,0.7,2.3c0,1-0.2,1.7-0.7,2.3c-0.5,0.6-1.2,0.9-2,0.9c-0.6,0-1.1-0.2-1.5-0.5s-0.8-0.8-1-1.4
			c-0.2,0.5-0.5,0.9-0.9,1.2c-0.4,0.3-0.9,0.4-1.4,0.4c-0.8,0-1.5-0.3-2-0.8c-0.5-0.5-0.7-1.2-0.7-2.1s0.2-1.6,0.7-2.1
			C79.7,0.5,80.3,0.3,81.1,0.3z M85.9,0.8c-0.6,0-1.1,0.2-1.5,0.7c-0.4,0.4-0.6,1-0.6,1.7s0.2,1.3,0.6,1.7s0.9,0.7,1.5,0.7
			s1.1-0.2,1.5-0.6c0.4-0.4,0.6-1,0.6-1.7c0-0.7-0.2-1.3-0.6-1.7S86.5,0.8,85.9,0.8z M81.1,1.1c-0.6,0-1,0.2-1.4,0.6
			c-0.4,0.4-0.6,0.9-0.6,1.5c0,0.6,0.2,1.1,0.6,1.5c0.4,0.4,0.8,0.6,1.4,0.6c0.6,0,1.1-0.2,1.4-0.6c0.4-0.4,0.5-0.9,0.5-1.5
			c0-0.6-0.2-1.1-0.5-1.5C82.2,1.3,81.7,1.1,81.1,1.1z"/>
		<path class="st0" d="M114.2,54.9v0.8h-9l1,2.7h-0.8l-1.3-3.4v-0.1H114.2z"/>
		<path class="st0" d="M114.2,44.7v6.2h-0.6l-3.9-3.4c-0.7-0.6-1.2-1-1.6-1.2s-0.8-0.3-1.2-0.3c-0.6,0-1.1,0.2-1.5,0.6
			c-0.4,0.4-0.6,0.9-0.6,1.5c0,0.7,0.2,1.2,0.6,1.6c0.4,0.4,1,0.6,1.7,0.6v0.8c-0.6,0-1.1-0.1-1.5-0.4c-0.5-0.3-0.8-0.6-1.1-1.1
			c-0.3-0.5-0.4-1-0.4-1.6c0-0.9,0.2-1.6,0.7-2.1c0.5-0.5,1.1-0.8,2-0.8c0.5,0,1,0.1,1.5,0.4c0.6,0.3,1.2,0.8,2.1,1.5l3.1,2.8v-5.2
			H114.2z"/>
		<path class="st0" d="M110.1,37.2c1.4,0,2.5,0.3,3.2,0.8c0.7,0.5,1.1,1.3,1.1,2.3c0,1-0.4,1.7-1.1,2.3c-0.7,0.5-1.8,0.8-3.1,0.8
			h-1.8c-1.4,0-2.5-0.3-3.2-0.8s-1.1-1.3-1.1-2.3c0-1,0.3-1.7,1-2.3c0.7-0.5,1.7-0.8,3.1-0.8H110.1z M108.3,38c-1.1,0-2,0.2-2.6,0.6
			c-0.6,0.4-0.9,0.9-0.9,1.7c0,0.7,0.3,1.3,0.9,1.7s1.4,0.6,2.5,0.6h2c1.1,0,2-0.2,2.6-0.6c0.6-0.4,0.9-0.9,0.9-1.7
			c0-0.7-0.3-1.3-0.9-1.7c-0.6-0.4-1.4-0.6-2.6-0.6H108.3z"/>
		<path class="st0" d="M113.7,35.4c-0.2,0-0.3-0.1-0.4-0.2c-0.1-0.1-0.2-0.2-0.2-0.4s0.1-0.3,0.2-0.4c0.1-0.1,0.2-0.2,0.4-0.2
			s0.3,0.1,0.4,0.2c0.1,0.1,0.2,0.2,0.2,0.4s-0.1,0.3-0.2,0.4C114,35.3,113.9,35.4,113.7,35.4z"/>
		<path class="st0" d="M110.1,26.1c1.4,0,2.5,0.3,3.2,0.8c0.7,0.5,1.1,1.3,1.1,2.3c0,1-0.4,1.7-1.1,2.3c-0.7,0.5-1.8,0.8-3.1,0.8
			h-1.8c-1.4,0-2.5-0.3-3.2-0.8s-1.1-1.3-1.1-2.3c0-1,0.3-1.7,1-2.3c0.7-0.5,1.7-0.8,3.1-0.8H110.1z M108.3,26.9
			c-1.1,0-2,0.2-2.6,0.6c-0.6,0.4-0.9,0.9-0.9,1.7c0,0.7,0.3,1.3,0.9,1.7s1.4,0.6,2.5,0.6h2c1.1,0,2-0.2,2.6-0.6
			c0.6-0.4,0.9-0.9,0.9-1.7c0-0.7-0.3-1.3-0.9-1.7c-0.6-0.4-1.4-0.6-2.6-0.6H108.3z"/>
		<path class="st0" d="M110.1,18.3c1.4,0,2.5,0.3,3.2,0.8c0.7,0.5,1.1,1.3,1.1,2.3c0,1-0.4,1.7-1.1,2.3c-0.7,0.5-1.8,0.8-3.1,0.8
			h-1.8c-1.4,0-2.5-0.3-3.2-0.8s-1.1-1.3-1.1-2.3c0-1,0.3-1.7,1-2.3c0.7-0.5,1.7-0.8,3.1-0.8H110.1z M108.3,19.1
			c-1.1,0-2,0.2-2.6,0.6c-0.6,0.4-0.9,0.9-0.9,1.7c0,0.7,0.3,1.3,0.9,1.7s1.4,0.6,2.5,0.6h2c1.1,0,2-0.2,2.6-0.6
			c0.6-0.4,0.9-0.9,0.9-1.7c0-0.7-0.3-1.3-0.9-1.7c-0.6-0.4-1.4-0.6-2.6-0.6H108.3z"/>
		<path class="st0" d="M110.1,10.6c1.4,0,2.5,0.3,3.2,0.8c0.7,0.5,1.1,1.3,1.1,2.3c0,1-0.4,1.7-1.1,2.3c-0.7,0.5-1.8,0.8-3.1,0.8
			h-1.8c-1.4,0-2.5-0.3-3.2-0.8s-1.1-1.3-1.1-2.3c0-1,0.3-1.7,1-2.3c0.7-0.5,1.7-0.8,3.1-0.8H110.1z M108.3,11.4
			c-1.1,0-2,0.2-2.6,0.6c-0.6,0.4-0.9,0.9-0.9,1.7c0,0.7,0.3,1.3,0.9,1.7s1.4,0.6,2.5,0.6h2c1.1,0,2-0.2,2.6-0.6
			c0.6-0.4,0.9-0.9,0.9-1.7c0-0.7-0.3-1.3-0.9-1.7c-0.6-0.4-1.4-0.6-2.6-0.6H108.3z"/>
		<path class="st0" d="M139.9,54.9v0.8h-9l1,2.7h-0.8l-1.3-3.4v-0.1H139.9z"/>
		<path class="st0" d="M132.5,45.1c0.5,0,1,0.2,1.4,0.5c0.4,0.3,0.7,0.7,0.9,1.2c0.2-0.6,0.5-1,0.9-1.4s0.9-0.5,1.5-0.5
			c0.9,0,1.5,0.3,2,0.9c0.5,0.6,0.7,1.3,0.7,2.3c0,1-0.2,1.7-0.7,2.3c-0.5,0.6-1.2,0.9-2,0.9c-0.6,0-1.1-0.2-1.5-0.5
			c-0.4-0.3-0.8-0.8-1-1.4c-0.2,0.5-0.5,0.9-0.9,1.2c-0.4,0.3-0.9,0.4-1.4,0.4c-0.8,0-1.5-0.3-2-0.8c-0.5-0.5-0.7-1.2-0.7-2.1
			s0.2-1.6,0.7-2.1C131.1,45.3,131.7,45.1,132.5,45.1z M137.3,45.6c-0.6,0-1.1,0.2-1.5,0.7c-0.4,0.4-0.6,1-0.6,1.7s0.2,1.3,0.6,1.7
			c0.4,0.4,0.9,0.7,1.5,0.7c0.6,0,1.1-0.2,1.5-0.6c0.4-0.4,0.6-1,0.6-1.7c0-0.7-0.2-1.3-0.6-1.7C138.4,45.9,137.9,45.6,137.3,45.6z
			 M132.5,45.9c-0.6,0-1,0.2-1.4,0.6c-0.4,0.4-0.6,0.9-0.6,1.5c0,0.6,0.2,1.1,0.6,1.5c0.4,0.4,0.8,0.6,1.4,0.6
			c0.6,0,1.1-0.2,1.4-0.6c0.4-0.4,0.5-0.9,0.5-1.5c0-0.6-0.2-1.1-0.5-1.5C133.6,46.1,133.1,45.9,132.5,45.9z"/>
		<path class="st0" d="M134.8,42.6l-4.9-0.5v-5h0.8v4.3l3.4,0.3c-0.4-0.5-0.5-1.2-0.5-1.9c0-0.9,0.3-1.6,0.9-2.1
			c0.6-0.5,1.4-0.8,2.3-0.8c1,0,1.9,0.3,2.4,0.8c0.6,0.5,0.9,1.3,0.9,2.2c0,0.9-0.2,1.6-0.7,2.1c-0.5,0.5-1.2,0.8-2,0.9v-0.8
			c0.7-0.1,1.2-0.3,1.5-0.7c0.3-0.4,0.5-0.9,0.5-1.6c0-0.7-0.2-1.2-0.7-1.6c-0.5-0.4-1.1-0.5-1.9-0.5c-0.7,0-1.3,0.2-1.8,0.6
			c-0.5,0.4-0.7,1-0.7,1.7c0,0.4,0,0.7,0.1,1c0.1,0.3,0.3,0.6,0.6,0.9L134.8,42.6z"/>
		<path class="st0" d="M139.4,35.4c-0.2,0-0.3-0.1-0.4-0.2c-0.1-0.1-0.2-0.2-0.2-0.4s0.1-0.3,0.2-0.4s0.2-0.2,0.4-0.2
			c0.2,0,0.3,0.1,0.4,0.2c0.1,0.1,0.2,0.2,0.2,0.4s-0.1,0.3-0.2,0.4C139.7,35.3,139.6,35.4,139.4,35.4z"/>
		<path class="st0" d="M132.5,26.2c0.5,0,1,0.2,1.4,0.5c0.4,0.3,0.7,0.7,0.9,1.2c0.2-0.6,0.5-1,0.9-1.4s0.9-0.5,1.5-0.5
			c0.9,0,1.5,0.3,2,0.9c0.5,0.6,0.7,1.3,0.7,2.3c0,1-0.2,1.7-0.7,2.3c-0.5,0.6-1.2,0.9-2,0.9c-0.6,0-1.1-0.2-1.5-0.5
			c-0.4-0.3-0.8-0.8-1-1.4c-0.2,0.5-0.5,0.9-0.9,1.2c-0.4,0.3-0.9,0.4-1.4,0.4c-0.8,0-1.5-0.3-2-0.8c-0.5-0.5-0.7-1.2-0.7-2.1
			s0.2-1.6,0.7-2.1C131.1,26.5,131.7,26.2,132.5,26.2z M137.3,26.8c-0.6,0-1.1,0.2-1.5,0.7c-0.4,0.4-0.6,1-0.6,1.7s0.2,1.3,0.6,1.7
			c0.4,0.4,0.9,0.7,1.5,0.7c0.6,0,1.1-0.2,1.5-0.6c0.4-0.4,0.6-1,0.6-1.7c0-0.7-0.2-1.3-0.6-1.7C138.4,27,137.9,26.8,137.3,26.8z
			 M132.5,27c-0.6,0-1,0.2-1.4,0.6c-0.4,0.4-0.6,0.9-0.6,1.5c0,0.6,0.2,1.1,0.6,1.5c0.4,0.4,0.8,0.6,1.4,0.6c0.6,0,1.1-0.2,1.4-0.6
			c0.4-0.4,0.5-0.9,0.5-1.5c0-0.6-0.2-1.1-0.5-1.5C133.6,27.2,133.1,27,132.5,27z"/>
		<path class="st0" d="M135.3,19.2c0.4,0.3,0.8,0.7,1,1.1c0.2,0.4,0.4,0.9,0.4,1.4c0,0.6-0.1,1.1-0.4,1.5c-0.3,0.4-0.7,0.8-1.2,1
			c-0.5,0.2-1.1,0.4-1.7,0.4c-0.7,0-1.3-0.1-1.8-0.4c-0.5-0.3-1-0.6-1.3-1.1c-0.3-0.5-0.4-1-0.4-1.6c0-1,0.3-1.8,1-2.3
			c0.7-0.6,1.7-0.8,3-0.8h0.7c1.8,0,3.1,0.4,4,1.1s1.4,1.9,1.4,3.5v0.2l-0.7,0v-0.3c0-1.2-0.4-2.1-1-2.7S136.6,19.2,135.3,19.2z
			 M135.9,21.6c0-0.5-0.2-1-0.5-1.5c-0.3-0.4-0.7-0.7-1.3-0.9h-0.5c-1,0-1.8,0.2-2.3,0.6c-0.6,0.4-0.8,1-0.8,1.7
			c0,0.6,0.3,1.2,0.8,1.6c0.5,0.4,1.2,0.6,2,0.6c0.8,0,1.4-0.2,1.9-0.6C135.7,22.8,135.9,22.2,135.9,21.6z"/>
		<path class="st0" d="M130.4,10.4l9.5,4.3v0.9l-9.3-4.2V17H130v-6.5H130.4z"/>
		<path class="st0" d="M141.8,8.8l-0.4,0.5c-0.6-0.4-1.1-0.6-1.7-0.6h-1.1V7.9h0.9C140.4,7.9,141.2,8.2,141.8,8.8z"/>
		<path class="st0" d="M132.5,0.3c0.5,0,1,0.2,1.4,0.5c0.4,0.3,0.7,0.7,0.9,1.2c0.2-0.6,0.5-1,0.9-1.4s0.9-0.5,1.5-0.5
			c0.9,0,1.5,0.3,2,0.9c0.5,0.6,0.7,1.3,0.7,2.3c0,1-0.2,1.7-0.7,2.3c-0.5,0.6-1.2,0.9-2,0.9c-0.6,0-1.1-0.2-1.5-0.5
			c-0.4-0.3-0.8-0.8-1-1.4c-0.2,0.5-0.5,0.9-0.9,1.2c-0.4,0.3-0.9,0.4-1.4,0.4c-0.8,0-1.5-0.3-2-0.8c-0.5-0.5-0.7-1.2-0.7-2.1
			s0.2-1.6,0.7-2.1C131.1,0.5,131.7,0.3,132.5,0.3z M137.3,0.8c-0.6,0-1.1,0.2-1.5,0.7c-0.4,0.4-0.6,1-0.6,1.7s0.2,1.3,0.6,1.7
			c0.4,0.4,0.9,0.7,1.5,0.7c0.6,0,1.1-0.2,1.5-0.6c0.4-0.4,0.6-1,0.6-1.7c0-0.7-0.2-1.3-0.6-1.7C138.4,1,137.9,0.8,137.3,0.8z
			 M132.5,1.1c-0.6,0-1,0.2-1.4,0.6c-0.4,0.4-0.6,0.9-0.6,1.5c0,0.6,0.2,1.1,0.6,1.5c0.4,0.4,0.8,0.6,1.4,0.6c0.6,0,1.1-0.2,1.4-0.6
			c0.4-0.4,0.5-0.9,0.5-1.5c0-0.6-0.2-1.1-0.5-1.5C133.6,1.3,133.1,1.1,132.5,1.1z"/>
		<path class="st0" d="M165.6,54.9v0.8h-9l1,2.7h-0.8l-1.3-3.4v-0.1H165.6z"/>
		<path class="st0" d="M165.6,44.7v6.2H165l-3.9-3.4c-0.7-0.6-1.2-1-1.6-1.2s-0.8-0.3-1.2-0.3c-0.6,0-1.1,0.2-1.5,0.6
			c-0.4,0.4-0.6,0.9-0.6,1.5c0,0.7,0.2,1.2,0.6,1.6c0.4,0.4,1,0.6,1.7,0.6v0.8c-0.6,0-1.1-0.1-1.5-0.4c-0.5-0.3-0.8-0.6-1.1-1.1
			c-0.3-0.5-0.4-1-0.4-1.6c0-0.9,0.2-1.6,0.7-2.1c0.5-0.5,1.1-0.8,2-0.8c0.5,0,1,0.1,1.5,0.4c0.6,0.3,1.2,0.8,2.1,1.5l3.1,2.8v-5.2
			H165.6z"/>
		<path class="st0" d="M161.5,37.2c1.4,0,2.5,0.3,3.2,0.8c0.7,0.5,1.1,1.3,1.1,2.3c0,1-0.4,1.7-1.1,2.3s-1.8,0.8-3.1,0.8h-1.8
			c-1.4,0-2.5-0.3-3.2-0.8c-0.7-0.5-1.1-1.3-1.1-2.3c0-1,0.3-1.7,1-2.3c0.7-0.5,1.7-0.8,3.1-0.8H161.5z M159.7,38
			c-1.1,0-2,0.2-2.6,0.6c-0.6,0.4-0.9,0.9-0.9,1.7c0,0.7,0.3,1.3,0.9,1.7c0.6,0.4,1.4,0.6,2.5,0.6h2c1.1,0,2-0.2,2.6-0.6
			c0.6-0.4,0.9-0.9,0.9-1.7c0-0.7-0.3-1.3-0.9-1.7c-0.6-0.4-1.4-0.6-2.6-0.6H159.7z"/>
		<path class="st0" d="M165.1,35.4c-0.2,0-0.3-0.1-0.4-0.2c-0.1-0.1-0.2-0.2-0.2-0.4s0.1-0.3,0.2-0.4c0.1-0.1,0.2-0.2,0.4-0.2
			c0.2,0,0.3,0.1,0.4,0.2c0.1,0.1,0.2,0.2,0.2,0.4s-0.1,0.3-0.2,0.4C165.4,35.3,165.3,35.4,165.1,35.4z"/>
		<path class="st0" d="M161.5,26.1c1.4,0,2.5,0.3,3.2,0.8c0.7,0.5,1.1,1.3,1.1,2.3c0,1-0.4,1.7-1.1,2.3s-1.8,0.8-3.1,0.8h-1.8
			c-1.4,0-2.5-0.3-3.2-0.8c-0.7-0.5-1.1-1.3-1.1-2.3c0-1,0.3-1.7,1-2.3c0.7-0.5,1.7-0.8,3.1-0.8H161.5z M159.7,26.9
			c-1.1,0-2,0.2-2.6,0.6c-0.6,0.4-0.9,0.9-0.9,1.7c0,0.7,0.3,1.3,0.9,1.7c0.6,0.4,1.4,0.6,2.5,0.6h2c1.1,0,2-0.2,2.6-0.6
			c0.6-0.4,0.9-0.9,0.9-1.7c0-0.7-0.3-1.3-0.9-1.7c-0.6-0.4-1.4-0.6-2.6-0.6H159.7z"/>
		<path class="st0" d="M161.5,18.3c1.4,0,2.5,0.3,3.2,0.8c0.7,0.5,1.1,1.3,1.1,2.3c0,1-0.4,1.7-1.1,2.3s-1.8,0.8-3.1,0.8h-1.8
			c-1.4,0-2.5-0.3-3.2-0.8c-0.7-0.5-1.1-1.3-1.1-2.3c0-1,0.3-1.7,1-2.3c0.7-0.5,1.7-0.8,3.1-0.8H161.5z M159.7,19.1
			c-1.1,0-2,0.2-2.6,0.6c-0.6,0.4-0.9,0.9-0.9,1.7c0,0.7,0.3,1.3,0.9,1.7c0.6,0.4,1.4,0.6,2.5,0.6h2c1.1,0,2-0.2,2.6-0.6
			c0.6-0.4,0.9-0.9,0.9-1.7c0-0.7-0.3-1.3-0.9-1.7c-0.6-0.4-1.4-0.6-2.6-0.6H159.7z"/>
		<path class="st0" d="M161.5,10.6c1.4,0,2.5,0.3,3.2,0.8c0.7,0.5,1.1,1.3,1.1,2.3c0,1-0.4,1.7-1.1,2.3s-1.8,0.8-3.1,0.8h-1.8
			c-1.4,0-2.5-0.3-3.2-0.8c-0.7-0.5-1.1-1.3-1.1-2.3c0-1,0.3-1.7,1-2.3c0.7-0.5,1.7-0.8,3.1-0.8H161.5z M159.7,11.4
			c-1.1,0-2,0.2-2.6,0.6c-0.6,0.4-0.9,0.9-0.9,1.7c0,0.7,0.3,1.3,0.9,1.7c0.6,0.4,1.4,0.6,2.5,0.6h2c1.1,0,2-0.2,2.6-0.6
			c0.6-0.4,0.9-0.9,0.9-1.7c0-0.7-0.3-1.3-0.9-1.7c-0.6-0.4-1.4-0.6-2.6-0.6H159.7z"/>
		<path class="st0" d="M191.3,54.9v0.8h-9l1,2.7h-0.8l-1.3-3.4v-0.1H191.3z"/>
		<path class="st0" d="M183.9,45.1c0.5,0,1,0.2,1.4,0.5c0.4,0.3,0.7,0.7,0.9,1.2c0.2-0.6,0.5-1,0.9-1.4s0.9-0.5,1.5-0.5
			c0.9,0,1.5,0.3,2,0.9c0.5,0.6,0.7,1.3,0.7,2.3c0,1-0.2,1.7-0.7,2.3c-0.5,0.6-1.2,0.9-2,0.9c-0.6,0-1.1-0.2-1.5-0.5
			c-0.4-0.3-0.8-0.8-1-1.4c-0.2,0.5-0.5,0.9-0.9,1.2c-0.4,0.3-0.9,0.4-1.4,0.4c-0.8,0-1.5-0.3-2-0.8c-0.5-0.5-0.7-1.2-0.7-2.1
			s0.2-1.6,0.7-2.1C182.5,45.3,183.1,45.1,183.9,45.1z M188.7,45.6c-0.6,0-1.1,0.2-1.5,0.7c-0.4,0.4-0.6,1-0.6,1.7s0.2,1.3,0.6,1.7
			c0.4,0.4,0.9,0.7,1.5,0.7c0.6,0,1.1-0.2,1.5-0.6c0.4-0.4,0.6-1,0.6-1.7c0-0.7-0.2-1.3-0.6-1.7C189.8,45.9,189.3,45.6,188.7,45.6z
			 M183.9,45.9c-0.6,0-1,0.2-1.4,0.6c-0.4,0.4-0.6,0.9-0.6,1.5c0,0.6,0.2,1.1,0.6,1.5c0.4,0.4,0.8,0.6,1.4,0.6
			c0.6,0,1.1-0.2,1.4-0.6c0.4-0.4,0.5-0.9,0.5-1.5c0-0.6-0.2-1.1-0.5-1.5C185,46.1,184.5,45.9,183.9,45.9z"/>
		<path class="st0" d="M186.2,42.6l-4.9-0.5v-5h0.8v4.3l3.4,0.3c-0.4-0.5-0.5-1.2-0.5-1.9c0-0.9,0.3-1.6,0.9-2.1
			c0.6-0.5,1.4-0.8,2.3-0.8c1,0,1.9,0.3,2.4,0.8c0.6,0.5,0.9,1.3,0.9,2.2c0,0.9-0.2,1.6-0.7,2.1c-0.5,0.5-1.2,0.8-2,0.9v-0.8
			c0.7-0.1,1.2-0.3,1.5-0.7c0.3-0.4,0.5-0.9,0.5-1.6c0-0.7-0.2-1.2-0.7-1.6c-0.5-0.4-1.1-0.5-1.9-0.5c-0.7,0-1.3,0.2-1.8,0.6
			c-0.5,0.4-0.7,1-0.7,1.7c0,0.4,0,0.7,0.1,1c0.1,0.3,0.3,0.6,0.6,0.9L186.2,42.6z"/>
		<path class="st0" d="M190.8,35.4c-0.2,0-0.3-0.1-0.4-0.2c-0.1-0.1-0.2-0.2-0.2-0.4s0.1-0.3,0.2-0.4s0.2-0.2,0.4-0.2
			c0.2,0,0.3,0.1,0.4,0.2c0.1,0.1,0.2,0.2,0.2,0.4s-0.1,0.3-0.2,0.4C191.1,35.3,191,35.4,190.8,35.4z"/>
		<path class="st0" d="M183.9,26.2c0.5,0,1,0.2,1.4,0.5c0.4,0.3,0.7,0.7,0.9,1.2c0.2-0.6,0.5-1,0.9-1.4s0.9-0.5,1.5-0.5
			c0.9,0,1.5,0.3,2,0.9c0.5,0.6,0.7,1.3,0.7,2.3c0,1-0.2,1.7-0.7,2.3c-0.5,0.6-1.2,0.9-2,0.9c-0.6,0-1.1-0.2-1.5-0.5
			c-0.4-0.3-0.8-0.8-1-1.4c-0.2,0.5-0.5,0.9-0.9,1.2c-0.4,0.3-0.9,0.4-1.4,0.4c-0.8,0-1.5-0.3-2-0.8c-0.5-0.5-0.7-1.2-0.7-2.1
			s0.2-1.6,0.7-2.1C182.5,26.5,183.1,26.2,183.9,26.2z M188.7,26.8c-0.6,0-1.1,0.2-1.5,0.7c-0.4,0.4-0.6,1-0.6,1.7s0.2,1.3,0.6,1.7
			c0.4,0.4,0.9,0.7,1.5,0.7c0.6,0,1.1-0.2,1.5-0.6c0.4-0.4,0.6-1,0.6-1.7c0-0.7-0.2-1.3-0.6-1.7C189.8,27,189.3,26.8,188.7,26.8z
			 M183.9,27c-0.6,0-1,0.2-1.4,0.6c-0.4,0.4-0.6,0.9-0.6,1.5c0,0.6,0.2,1.1,0.6,1.5c0.4,0.4,0.8,0.6,1.4,0.6c0.6,0,1.1-0.2,1.4-0.6
			c0.4-0.4,0.5-0.9,0.5-1.5c0-0.6-0.2-1.1-0.5-1.5C185,27.2,184.5,27,183.9,27z"/>
		<path class="st0" d="M186.7,19.2c0.4,0.3,0.8,0.7,1,1.1c0.2,0.4,0.4,0.9,0.4,1.4c0,0.6-0.1,1.1-0.4,1.5c-0.3,0.4-0.7,0.8-1.2,1
			c-0.5,0.2-1.1,0.4-1.7,0.4c-0.7,0-1.3-0.1-1.8-0.4c-0.5-0.3-1-0.6-1.3-1.1c-0.3-0.5-0.4-1-0.4-1.6c0-1,0.3-1.8,1-2.3
			c0.7-0.6,1.7-0.8,3-0.8h0.7c1.8,0,3.1,0.4,4,1.1s1.4,1.9,1.4,3.5v0.2l-0.7,0v-0.3c0-1.2-0.4-2.1-1-2.7S188,19.2,186.7,19.2z
			 M187.3,21.6c0-0.5-0.2-1-0.5-1.5c-0.3-0.4-0.7-0.7-1.3-0.9h-0.5c-1,0-1.8,0.2-2.3,0.6c-0.6,0.4-0.8,1-0.8,1.7
			c0,0.6,0.3,1.2,0.8,1.6c0.5,0.4,1.2,0.6,2,0.6c0.8,0,1.4-0.2,1.9-0.6C187.1,22.8,187.3,22.2,187.3,21.6z"/>
		<path class="st0" d="M181.8,10.4l9.5,4.3v0.9l-9.3-4.2V17h-0.7v-6.5H181.8z"/>
		<path class="st0" d="M193.2,8.8l-0.4,0.5c-0.6-0.4-1.1-0.6-1.7-0.6H190V7.9h0.9C191.8,7.9,192.6,8.2,193.2,8.8z"/>
		<path class="st0" d="M183.9,0.3c0.5,0,1,0.2,1.4,0.5c0.4,0.3,0.7,0.7,0.9,1.2c0.2-0.6,0.5-1,0.9-1.4s0.9-0.5,1.5-0.5
			c0.9,0,1.5,0.3,2,0.9c0.5,0.6,0.7,1.3,0.7,2.3c0,1-0.2,1.7-0.7,2.3c-0.5,0.6-1.2,0.9-2,0.9c-0.6,0-1.1-0.2-1.5-0.5
			c-0.4-0.3-0.8-0.8-1-1.4c-0.2,0.5-0.5,0.9-0.9,1.2c-0.4,0.3-0.9,0.4-1.4,0.4c-0.8,0-1.5-0.3-2-0.8c-0.5-0.5-0.7-1.2-0.7-2.1
			s0.2-1.6,0.7-2.1C182.5,0.5,183.1,0.3,183.9,0.3z M188.7,0.8c-0.6,0-1.1,0.2-1.5,0.7c-0.4,0.4-0.6,1-0.6,1.7s0.2,1.3,0.6,1.7
			c0.4,0.4,0.9,0.7,1.5,0.7c0.6,0,1.1-0.2,1.5-0.6c0.4-0.4,0.6-1,0.6-1.7c0-0.7-0.2-1.3-0.6-1.7C189.8,1,189.3,0.8,188.7,0.8z
			 M183.9,1.1c-0.6,0-1,0.2-1.4,0.6c-0.4,0.4-0.6,0.9-0.6,1.5c0,0.6,0.2,1.1,0.6,1.5c0.4,0.4,0.8,0.6,1.4,0.6c0.6,0,1.1-0.2,1.4-0.6
			c0.4-0.4,0.5-0.9,0.5-1.5c0-0.6-0.2-1.1-0.5-1.5C185,1.3,184.5,1.1,183.9,1.1z"/>
		<path class="st0" d="M217,54.9v0.8h-9l1,2.7h-0.8L207,55v-0.1H217z"/>
		<path class="st0" d="M217,44.7v6.2h-0.6l-3.9-3.4c-0.7-0.6-1.2-1-1.6-1.2s-0.8-0.3-1.2-0.3c-0.6,0-1.1,0.2-1.5,0.6
			s-0.6,0.9-0.6,1.5c0,0.7,0.2,1.2,0.6,1.6c0.4,0.4,1,0.6,1.7,0.6v0.8c-0.6,0-1.1-0.1-1.5-0.4c-0.5-0.3-0.8-0.6-1.1-1.1
			c-0.3-0.5-0.4-1-0.4-1.6c0-0.9,0.2-1.6,0.7-2.1c0.5-0.5,1.1-0.8,2-0.8c0.5,0,1,0.1,1.5,0.4c0.6,0.3,1.2,0.8,2.1,1.5l3.1,2.8v-5.2
			H217z"/>
		<path class="st0" d="M212.9,37.2c1.4,0,2.5,0.3,3.2,0.8s1.1,1.3,1.1,2.3c0,1-0.4,1.7-1.1,2.3c-0.7,0.5-1.8,0.8-3.1,0.8h-1.8
			c-1.4,0-2.5-0.3-3.2-0.8c-0.7-0.5-1.1-1.3-1.1-2.3c0-1,0.3-1.7,1-2.3s1.7-0.8,3.1-0.8H212.9z M211.1,38c-1.1,0-2,0.2-2.6,0.6
			c-0.6,0.4-0.9,0.9-0.9,1.7c0,0.7,0.3,1.3,0.9,1.7c0.6,0.4,1.4,0.6,2.5,0.6h2c1.1,0,2-0.2,2.6-0.6c0.6-0.4,0.9-0.9,0.9-1.7
			c0-0.7-0.3-1.3-0.9-1.7c-0.6-0.4-1.4-0.6-2.6-0.6H211.1z"/>
		<path class="st0" d="M216.5,35.4c-0.2,0-0.3-0.1-0.4-0.2c-0.1-0.1-0.2-0.2-0.2-0.4s0.1-0.3,0.2-0.4s0.2-0.2,0.4-0.2
			c0.2,0,0.3,0.1,0.4,0.2c0.1,0.1,0.2,0.2,0.2,0.4s-0.1,0.3-0.2,0.4C216.8,35.3,216.7,35.4,216.5,35.4z"/>
		<path class="st0" d="M212.9,26.1c1.4,0,2.5,0.3,3.2,0.8s1.1,1.3,1.1,2.3c0,1-0.4,1.7-1.1,2.3c-0.7,0.5-1.8,0.8-3.1,0.8h-1.8
			c-1.4,0-2.5-0.3-3.2-0.8c-0.7-0.5-1.1-1.3-1.1-2.3c0-1,0.3-1.7,1-2.3s1.7-0.8,3.1-0.8H212.9z M211.1,26.9c-1.1,0-2,0.2-2.6,0.6
			c-0.6,0.4-0.9,0.9-0.9,1.7c0,0.7,0.3,1.3,0.9,1.7c0.6,0.4,1.4,0.6,2.5,0.6h2c1.1,0,2-0.2,2.6-0.6c0.6-0.4,0.9-0.9,0.9-1.7
			c0-0.7-0.3-1.3-0.9-1.7c-0.6-0.4-1.4-0.6-2.6-0.6H211.1z"/>
		<path class="st0" d="M212.9,18.3c1.4,0,2.5,0.3,3.2,0.8s1.1,1.3,1.1,2.3c0,1-0.4,1.7-1.1,2.3c-0.7,0.5-1.8,0.8-3.1,0.8h-1.8
			c-1.4,0-2.5-0.3-3.2-0.8c-0.7-0.5-1.1-1.3-1.1-2.3c0-1,0.3-1.7,1-2.3s1.7-0.8,3.1-0.8H212.9z M211.1,19.1c-1.1,0-2,0.2-2.6,0.6
			c-0.6,0.4-0.9,0.9-0.9,1.7c0,0.7,0.3,1.3,0.9,1.7c0.6,0.4,1.4,0.6,2.5,0.6h2c1.1,0,2-0.2,2.6-0.6c0.6-0.4,0.9-0.9,0.9-1.7
			c0-0.7-0.3-1.3-0.9-1.7c-0.6-0.4-1.4-0.6-2.6-0.6H211.1z"/>
		<path class="st0" d="M212.9,10.6c1.4,0,2.5,0.3,3.2,0.8s1.1,1.3,1.1,2.3c0,1-0.4,1.7-1.1,2.3c-0.7,0.5-1.8,0.8-3.1,0.8h-1.8
			c-1.4,0-2.5-0.3-3.2-0.8c-0.7-0.5-1.1-1.3-1.1-2.3c0-1,0.3-1.7,1-2.3s1.7-0.8,3.1-0.8H212.9z M211.1,11.4c-1.1,0-2,0.2-2.6,0.6
			c-0.6,0.4-0.9,0.9-0.9,1.7c0,0.7,0.3,1.3,0.9,1.7c0.6,0.4,1.4,0.6,2.5,0.6h2c1.1,0,2-0.2,2.6-0.6c0.6-0.4,0.9-0.9,0.9-1.7
			c0-0.7-0.3-1.3-0.9-1.7c-0.6-0.4-1.4-0.6-2.6-0.6H211.1z"/>
	</g>
	<g>
		<path class="st0" d="M8.5,259.3c1.4,0,2.5,0.3,3.2,0.8c0.7,0.5,1.1,1.3,1.1,2.3c0,1-0.4,1.7-1.1,2.3c-0.7,0.5-1.8,0.8-3.1,0.8H6.8
			c-1.4,0-2.5-0.3-3.2-0.8s-1.1-1.3-1.1-2.3c0-1,0.3-1.7,1-2.3c0.7-0.5,1.7-0.8,3.1-0.8H8.5z M6.7,260.2c-1.1,0-2,0.2-2.6,0.6
			c-0.6,0.4-0.9,0.9-0.9,1.7c0,0.7,0.3,1.3,0.9,1.7c0.6,0.4,1.4,0.6,2.5,0.6h2c1.1,0,2-0.2,2.6-0.6s0.9-0.9,0.9-1.7
			c0-0.7-0.3-1.3-0.9-1.7s-1.4-0.6-2.6-0.6H6.7z"/>
		<path class="st0" d="M12.7,253.8v0.8h-9l1,2.7H3.9l-1.3-3.4v-0.1H12.7z"/>
		<path class="st0" d="M12.2,249.8c-0.2,0-0.3-0.1-0.4-0.2c-0.1-0.1-0.2-0.2-0.2-0.4c0-0.2,0.1-0.3,0.2-0.4c0.1-0.1,0.2-0.2,0.4-0.2
			s0.3,0.1,0.4,0.2c0.1,0.1,0.2,0.2,0.2,0.4c0,0.2-0.1,0.3-0.2,0.4C12.5,249.7,12.3,249.8,12.2,249.8z"/>
		<path class="st0" d="M8.5,240.5c1.4,0,2.5,0.3,3.2,0.8c0.7,0.5,1.1,1.3,1.1,2.3c0,1-0.4,1.7-1.1,2.3c-0.7,0.5-1.8,0.8-3.1,0.8H6.8
			c-1.4,0-2.5-0.3-3.2-0.8s-1.1-1.3-1.1-2.3c0-1,0.3-1.7,1-2.3c0.7-0.5,1.7-0.8,3.1-0.8H8.5z M6.7,241.3c-1.1,0-2,0.2-2.6,0.6
			c-0.6,0.4-0.9,0.9-0.9,1.7c0,0.7,0.3,1.3,0.9,1.7c0.6,0.4,1.4,0.6,2.5,0.6h2c1.1,0,2-0.2,2.6-0.6c0.6-0.4,0.9-0.9,0.9-1.7
			c0-0.7-0.3-1.3-0.9-1.7s-1.4-0.6-2.6-0.6H6.7z"/>
		<path class="st0" d="M9.5,233.7v-1.6h0.7v1.6h2.5v0.8h-2.5v4.7H9.7l-7-4.6v-0.9H9.5z M9.5,238.2v-3.7H3.8l0.6,0.4L9.5,238.2z"/>
		<path class="st0" d="M12.2,230.9c-0.2,0-0.3-0.1-0.4-0.2c-0.1-0.1-0.2-0.2-0.2-0.4c0-0.2,0.1-0.3,0.2-0.4c0.1-0.1,0.2-0.2,0.4-0.2
			s0.3,0.1,0.4,0.2c0.1,0.1,0.2,0.2,0.2,0.4c0,0.2-0.1,0.3-0.2,0.4C12.5,230.9,12.3,230.9,12.2,230.9z"/>
		<path class="st0" d="M12.7,218v6.2H12l-3.9-3.4c-0.7-0.6-1.2-1-1.6-1.2s-0.8-0.3-1.2-0.3c-0.6,0-1.1,0.2-1.5,0.6
			c-0.4,0.4-0.6,0.9-0.6,1.5c0,0.7,0.2,1.2,0.6,1.6c0.4,0.4,1,0.6,1.7,0.6v0.8c-0.6,0-1.1-0.1-1.5-0.4S3.2,223.5,3,223
			c-0.3-0.5-0.4-1-0.4-1.6c0-0.9,0.2-1.6,0.7-2.1s1.1-0.8,2-0.8c0.5,0,1,0.1,1.5,0.4c0.6,0.3,1.2,0.8,2.1,1.5l3.1,2.8V218H12.7z"/>
		<path class="st0" d="M8.5,210.5c1.4,0,2.5,0.3,3.2,0.8c0.7,0.5,1.1,1.3,1.1,2.3c0,1-0.4,1.7-1.1,2.3c-0.7,0.5-1.8,0.8-3.1,0.8H6.8
			c-1.4,0-2.5-0.3-3.2-0.8s-1.1-1.3-1.1-2.3c0-1,0.3-1.7,1-2.3c0.7-0.5,1.7-0.8,3.1-0.8H8.5z M6.7,211.3c-1.1,0-2,0.2-2.6,0.6
			c-0.6,0.4-0.9,0.9-0.9,1.7c0,0.7,0.3,1.3,0.9,1.7c0.6,0.4,1.4,0.6,2.5,0.6h2c1.1,0,2-0.2,2.6-0.6c0.6-0.4,0.9-0.9,0.9-1.7
			c0-0.7-0.3-1.3-0.9-1.7s-1.4-0.6-2.6-0.6H6.7z"/>
		<path class="st0" d="M12.7,204.9v0.8h-9l1,2.7H3.9L2.7,205v-0.1H12.7z"/>
		<path class="st0" d="M3.2,194.8l9.5,4.3v0.9l-9.3-4.2v5.7H2.7v-6.5H3.2z"/>
		<path class="st1" d="M34.2,259.3c1.4,0,2.5,0.3,3.2,0.8c0.7,0.5,1.1,1.3,1.1,2.3c0,1-0.4,1.7-1.1,2.3c-0.7,0.5-1.8,0.8-3.1,0.8
			h-1.8c-1.4,0-2.5-0.3-3.2-0.8s-1.1-1.3-1.1-2.3c0-1,0.3-1.7,1-2.3c0.7-0.5,1.7-0.8,3.1-0.8H34.2z M32.4,260.2
			c-1.1,0-2,0.2-2.6,0.6c-0.6,0.4-0.9,0.9-0.9,1.7c0,0.7,0.3,1.3,0.9,1.7c0.6,0.4,1.4,0.6,2.5,0.6h2c1.1,0,2-0.2,2.6-0.6
			s0.9-0.9,0.9-1.7c0-0.7-0.3-1.3-0.9-1.7s-1.4-0.6-2.6-0.6H32.4z"/>
		<path class="st1" d="M38.4,253.8v0.8h-9l1,2.7h-0.8l-1.3-3.4v-0.1H38.4z"/>
		<path class="st1" d="M37.9,249.8c-0.2,0-0.3-0.1-0.4-0.2c-0.1-0.1-0.2-0.2-0.2-0.4c0-0.2,0.1-0.3,0.2-0.4c0.1-0.1,0.2-0.2,0.4-0.2
			s0.3,0.1,0.4,0.2c0.1,0.1,0.2,0.2,0.2,0.4c0,0.2-0.1,0.3-0.2,0.4C38.2,249.7,38,249.8,37.9,249.8z"/>
		<path class="st1" d="M34.2,240.5c1.4,0,2.5,0.3,3.2,0.8c0.7,0.5,1.1,1.3,1.1,2.3c0,1-0.4,1.7-1.1,2.3c-0.7,0.5-1.8,0.8-3.1,0.8
			h-1.8c-1.4,0-2.5-0.3-3.2-0.8s-1.1-1.3-1.1-2.3c0-1,0.3-1.7,1-2.3c0.7-0.5,1.7-0.8,3.1-0.8H34.2z M32.4,241.3
			c-1.1,0-2,0.2-2.6,0.6c-0.6,0.4-0.9,0.9-0.9,1.7c0,0.7,0.3,1.3,0.9,1.7c0.6,0.4,1.4,0.6,2.5,0.6h2c1.1,0,2-0.2,2.6-0.6
			c0.6-0.4,0.9-0.9,0.9-1.7c0-0.7-0.3-1.3-0.9-1.7s-1.4-0.6-2.6-0.6H32.4z"/>
		<path class="st1" d="M33.3,238.2l-4.9-0.5v-5h0.8v4.3l3.4,0.3c-0.4-0.5-0.5-1.2-0.5-1.9c0-0.9,0.3-1.6,0.9-2.1s1.4-0.8,2.3-0.8
			c1,0,1.9,0.3,2.4,0.8s0.9,1.3,0.9,2.2c0,0.9-0.2,1.6-0.7,2.1c-0.5,0.5-1.2,0.8-2,0.9v-0.8c0.7-0.1,1.2-0.3,1.5-0.7
			c0.3-0.4,0.5-0.9,0.5-1.6c0-0.7-0.2-1.2-0.7-1.6s-1.1-0.5-1.9-0.5c-0.7,0-1.3,0.2-1.8,0.6c-0.5,0.4-0.7,1-0.7,1.7
			c0,0.4,0,0.7,0.1,1c0.1,0.3,0.3,0.6,0.6,0.9L33.3,238.2z"/>
		<path class="st1" d="M37.9,230.9c-0.2,0-0.3-0.1-0.4-0.2c-0.1-0.1-0.2-0.2-0.2-0.4c0-0.2,0.1-0.3,0.2-0.4c0.1-0.1,0.2-0.2,0.4-0.2
			s0.3,0.1,0.4,0.2c0.1,0.1,0.2,0.2,0.2,0.4c0,0.2-0.1,0.3-0.2,0.4C38.2,230.9,38,230.9,37.9,230.9z"/>
		<path class="st1" d="M38.4,218v6.2h-0.6l-3.9-3.4c-0.7-0.6-1.2-1-1.6-1.2s-0.8-0.3-1.2-0.3c-0.6,0-1.1,0.2-1.5,0.6
			c-0.4,0.4-0.6,0.9-0.6,1.5c0,0.7,0.2,1.2,0.6,1.6c0.4,0.4,1,0.6,1.7,0.6v0.8c-0.6,0-1.1-0.1-1.5-0.4s-0.8-0.6-1.1-1.1
			c-0.3-0.5-0.4-1-0.4-1.6c0-0.9,0.2-1.6,0.7-2.1s1.1-0.8,2-0.8c0.5,0,1,0.1,1.5,0.4c0.6,0.3,1.2,0.8,2.1,1.5l3.1,2.8V218H38.4z"/>
		<path class="st1" d="M34.2,210.5c1.4,0,2.5,0.3,3.2,0.8c0.7,0.5,1.1,1.3,1.1,2.3c0,1-0.4,1.7-1.1,2.3c-0.7,0.5-1.8,0.8-3.1,0.8
			h-1.8c-1.4,0-2.5-0.3-3.2-0.8s-1.1-1.3-1.1-2.3c0-1,0.3-1.7,1-2.3c0.7-0.5,1.7-0.8,3.1-0.8H34.2z M32.4,211.3
			c-1.1,0-2,0.2-2.6,0.6c-0.6,0.4-0.9,0.9-0.9,1.7c0,0.7,0.3,1.3,0.9,1.7c0.6,0.4,1.4,0.6,2.5,0.6h2c1.1,0,2-0.2,2.6-0.6
			c0.6-0.4,0.9-0.9,0.9-1.7c0-0.7-0.3-1.3-0.9-1.7s-1.4-0.6-2.6-0.6H32.4z"/>
		<path class="st1" d="M38.4,204.9v0.8h-9l1,2.7h-0.8l-1.3-3.4v-0.1H38.4z"/>
		<path class="st1" d="M28.9,194.8l9.5,4.3v0.9l-9.3-4.2v5.7h-0.7v-6.5H28.9z"/>
		<path class="st0" d="M59.9,259.3c1.4,0,2.5,0.3,3.2,0.8c0.7,0.5,1.1,1.3,1.1,2.3c0,1-0.4,1.7-1.1,2.3c-0.7,0.5-1.8,0.8-3.1,0.8
			h-1.8c-1.4,0-2.5-0.3-3.2-0.8s-1.1-1.3-1.1-2.3c0-1,0.3-1.7,1-2.3c0.7-0.5,1.7-0.8,3.1-0.8H59.9z M58.1,260.2
			c-1.1,0-2,0.2-2.6,0.6s-0.9,0.9-0.9,1.7c0,0.7,0.3,1.3,0.9,1.7c0.6,0.4,1.4,0.6,2.5,0.6h2c1.1,0,2-0.2,2.6-0.6s0.9-0.9,0.9-1.7
			c0-0.7-0.3-1.3-0.9-1.7s-1.4-0.6-2.6-0.6H58.1z"/>
		<path class="st0" d="M64.1,253.8v0.8h-9l1,2.7h-0.8l-1.3-3.4v-0.1H64.1z"/>
		<path class="st0" d="M63.6,249.8c-0.2,0-0.3-0.1-0.4-0.2c-0.1-0.1-0.2-0.2-0.2-0.4c0-0.2,0.1-0.3,0.2-0.4c0.1-0.1,0.2-0.2,0.4-0.2
			s0.3,0.1,0.4,0.2c0.1,0.1,0.2,0.2,0.2,0.4c0,0.2-0.1,0.3-0.2,0.4C63.9,249.7,63.7,249.8,63.6,249.8z"/>
		<path class="st0" d="M59.9,240.5c1.4,0,2.5,0.3,3.2,0.8c0.7,0.5,1.1,1.3,1.1,2.3c0,1-0.4,1.7-1.1,2.3c-0.7,0.5-1.8,0.8-3.1,0.8
			h-1.8c-1.4,0-2.5-0.3-3.2-0.8s-1.1-1.3-1.1-2.3c0-1,0.3-1.7,1-2.3c0.7-0.5,1.7-0.8,3.1-0.8H59.9z M58.1,241.3
			c-1.1,0-2,0.2-2.6,0.6c-0.6,0.4-0.9,0.9-0.9,1.7c0,0.7,0.3,1.3,0.9,1.7c0.6,0.4,1.4,0.6,2.5,0.6h2c1.1,0,2-0.2,2.6-0.6
			s0.9-0.9,0.9-1.7c0-0.7-0.3-1.3-0.9-1.7s-1.4-0.6-2.6-0.6H58.1z"/>
		<path class="st0" d="M60.9,233.7v-1.6h0.7v1.6h2.5v0.8h-2.5v4.7h-0.5l-7-4.6v-0.9H60.9z M60.9,238.2v-3.7h-5.7l0.6,0.4L60.9,238.2
			z"/>
		<path class="st0" d="M63.6,230.9c-0.2,0-0.3-0.1-0.4-0.2c-0.1-0.1-0.2-0.2-0.2-0.4c0-0.2,0.1-0.3,0.2-0.4c0.1-0.1,0.2-0.2,0.4-0.2
			s0.3,0.1,0.4,0.2c0.1,0.1,0.2,0.2,0.2,0.4c0,0.2-0.1,0.3-0.2,0.4C63.9,230.9,63.7,230.9,63.6,230.9z"/>
		<path class="st0" d="M64.1,218v6.2h-0.6l-3.9-3.4c-0.7-0.6-1.2-1-1.6-1.2s-0.8-0.3-1.2-0.3c-0.6,0-1.1,0.2-1.5,0.6
			c-0.4,0.4-0.6,0.9-0.6,1.5c0,0.7,0.2,1.2,0.6,1.6s1,0.6,1.7,0.6v0.8c-0.6,0-1.1-0.1-1.5-0.4s-0.8-0.6-1.1-1.1
			c-0.3-0.5-0.4-1-0.4-1.6c0-0.9,0.2-1.6,0.7-2.1s1.1-0.8,2-0.8c0.5,0,1,0.1,1.5,0.4s1.2,0.8,2.1,1.5l3.1,2.8V218H64.1z"/>
		<path class="st0" d="M59.9,210.5c1.4,0,2.5,0.3,3.2,0.8c0.7,0.5,1.1,1.3,1.1,2.3c0,1-0.4,1.7-1.1,2.3c-0.7,0.5-1.8,0.8-3.1,0.8
			h-1.8c-1.4,0-2.5-0.3-3.2-0.8s-1.1-1.3-1.1-2.3c0-1,0.3-1.7,1-2.3c0.7-0.5,1.7-0.8,3.1-0.8H59.9z M58.1,211.3
			c-1.1,0-2,0.2-2.6,0.6s-0.9,0.9-0.9,1.7c0,0.7,0.3,1.3,0.9,1.7c0.6,0.4,1.4,0.6,2.5,0.6h2c1.1,0,2-0.2,2.6-0.6s0.9-0.9,0.9-1.7
			c0-0.7-0.3-1.3-0.9-1.7s-1.4-0.6-2.6-0.6H58.1z"/>
		<path class="st0" d="M64.1,204.9v0.8h-9l1,2.7h-0.8l-1.3-3.4v-0.1H64.1z"/>
		<path class="st0" d="M54.6,194.8l9.5,4.3v0.9l-9.3-4.2v5.7h-0.7v-6.5H54.6z"/>
		<path class="st0" d="M85.6,259.3c1.4,0,2.5,0.3,3.2,0.8c0.7,0.5,1.1,1.3,1.1,2.3c0,1-0.4,1.7-1.1,2.3c-0.7,0.5-1.8,0.8-3.1,0.8
			h-1.8c-1.4,0-2.5-0.3-3.2-0.8s-1.1-1.3-1.1-2.3c0-1,0.3-1.7,1-2.3c0.7-0.5,1.7-0.8,3.1-0.8H85.6z M83.8,260.2
			c-1.1,0-2,0.2-2.6,0.6s-0.9,0.9-0.9,1.7c0,0.7,0.3,1.3,0.9,1.7c0.6,0.4,1.4,0.6,2.5,0.6h2c1.1,0,2-0.2,2.6-0.6s0.9-0.9,0.9-1.7
			c0-0.7-0.3-1.3-0.9-1.7s-1.4-0.6-2.6-0.6H83.8z"/>
		<path class="st0" d="M89.8,253.8v0.8h-9l1,2.7H81l-1.3-3.4v-0.1H89.8z"/>
		<path class="st0" d="M89.3,249.8c-0.2,0-0.3-0.1-0.4-0.2c-0.1-0.1-0.2-0.2-0.2-0.4c0-0.2,0.1-0.3,0.2-0.4c0.1-0.1,0.2-0.2,0.4-0.2
			s0.3,0.1,0.4,0.2c0.1,0.1,0.2,0.2,0.2,0.4c0,0.2-0.1,0.3-0.2,0.4C89.6,249.7,89.4,249.8,89.3,249.8z"/>
		<path class="st0" d="M85.6,240.5c1.4,0,2.5,0.3,3.2,0.8c0.7,0.5,1.1,1.3,1.1,2.3c0,1-0.4,1.7-1.1,2.3c-0.7,0.5-1.8,0.8-3.1,0.8
			h-1.8c-1.4,0-2.5-0.3-3.2-0.8s-1.1-1.3-1.1-2.3c0-1,0.3-1.7,1-2.3c0.7-0.5,1.7-0.8,3.1-0.8H85.6z M83.8,241.3
			c-1.1,0-2,0.2-2.6,0.6s-0.9,0.9-0.9,1.7c0,0.7,0.3,1.3,0.9,1.7c0.6,0.4,1.4,0.6,2.5,0.6h2c1.1,0,2-0.2,2.6-0.6s0.9-0.9,0.9-1.7
			c0-0.7-0.3-1.3-0.9-1.7s-1.4-0.6-2.6-0.6H83.8z"/>
		<path class="st0" d="M86.6,233.7v-1.6h0.7v1.6h2.5v0.8h-2.5v4.7h-0.5l-7-4.6v-0.9H86.6z M86.6,238.2v-3.7h-5.7l0.6,0.4L86.6,238.2
			z"/>
		<path class="st0" d="M89.3,230.9c-0.2,0-0.3-0.1-0.4-0.2c-0.1-0.1-0.2-0.2-0.2-0.4c0-0.2,0.1-0.3,0.2-0.4c0.1-0.1,0.2-0.2,0.4-0.2
			s0.3,0.1,0.4,0.2c0.1,0.1,0.2,0.2,0.2,0.4c0,0.2-0.1,0.3-0.2,0.4C89.6,230.9,89.4,230.9,89.3,230.9z"/>
		<path class="st0" d="M89.8,218v6.2h-0.6l-3.9-3.4c-0.7-0.6-1.2-1-1.6-1.2s-0.8-0.3-1.2-0.3c-0.6,0-1.1,0.2-1.5,0.6
			c-0.4,0.4-0.6,0.9-0.6,1.5c0,0.7,0.2,1.2,0.6,1.6s1,0.6,1.7,0.6v0.8c-0.6,0-1.1-0.1-1.5-0.4s-0.8-0.6-1.1-1.1
			c-0.3-0.5-0.4-1-0.4-1.6c0-0.9,0.2-1.6,0.7-2.1s1.1-0.8,2-0.8c0.5,0,1,0.1,1.5,0.4s1.2,0.8,2.1,1.5l3.1,2.8V218H89.8z"/>
		<path class="st0" d="M85.6,210.5c1.4,0,2.5,0.3,3.2,0.8c0.7,0.5,1.1,1.3,1.1,2.3c0,1-0.4,1.7-1.1,2.3c-0.7,0.5-1.8,0.8-3.1,0.8
			h-1.8c-1.4,0-2.5-0.3-3.2-0.8s-1.1-1.3-1.1-2.3c0-1,0.3-1.7,1-2.3c0.7-0.5,1.7-0.8,3.1-0.8H85.6z M83.8,211.3
			c-1.1,0-2,0.2-2.6,0.6s-0.9,0.9-0.9,1.7c0,0.7,0.3,1.3,0.9,1.7c0.6,0.4,1.4,0.6,2.5,0.6h2c1.1,0,2-0.2,2.6-0.6s0.9-0.9,0.9-1.7
			c0-0.7-0.3-1.3-0.9-1.7s-1.4-0.6-2.6-0.6H83.8z"/>
		<path class="st0" d="M89.8,204.9v0.8h-9l1,2.7H81l-1.3-3.4v-0.1H89.8z"/>
		<path class="st0" d="M80.3,194.8l9.5,4.3v0.9l-9.3-4.2v5.7h-0.7v-6.5H80.3z"/>
		<path class="st0" d="M111.3,259.3c1.4,0,2.5,0.3,3.2,0.8c0.7,0.5,1.1,1.3,1.1,2.3c0,1-0.4,1.7-1.1,2.3c-0.7,0.5-1.8,0.8-3.1,0.8
			h-1.8c-1.4,0-2.5-0.3-3.2-0.8s-1.1-1.3-1.1-2.3c0-1,0.3-1.7,1-2.3c0.7-0.5,1.7-0.8,3.1-0.8H111.3z M109.5,260.2
			c-1.1,0-2,0.2-2.6,0.6s-0.9,0.9-0.9,1.7c0,0.7,0.3,1.3,0.9,1.7c0.6,0.4,1.4,0.6,2.5,0.6h2c1.1,0,2-0.2,2.6-0.6s0.9-0.9,0.9-1.7
			c0-0.7-0.3-1.3-0.9-1.7s-1.4-0.6-2.6-0.6H109.5z"/>
		<path class="st0" d="M115.5,253.8v0.8h-9l1,2.7h-0.8l-1.3-3.4v-0.1H115.5z"/>
		<path class="st0" d="M115,249.8c-0.2,0-0.3-0.1-0.4-0.2c-0.1-0.1-0.2-0.2-0.2-0.4c0-0.2,0.1-0.3,0.2-0.4c0.1-0.1,0.2-0.2,0.4-0.2
			s0.3,0.1,0.4,0.2c0.1,0.1,0.2,0.2,0.2,0.4c0,0.2-0.1,0.3-0.2,0.4C115.3,249.7,115.1,249.8,115,249.8z"/>
		<path class="st0" d="M111.3,240.5c1.4,0,2.5,0.3,3.2,0.8c0.7,0.5,1.1,1.3,1.1,2.3c0,1-0.4,1.7-1.1,2.3c-0.7,0.5-1.8,0.8-3.1,0.8
			h-1.8c-1.4,0-2.5-0.3-3.2-0.8s-1.1-1.3-1.1-2.3c0-1,0.3-1.7,1-2.3c0.7-0.5,1.7-0.8,3.1-0.8H111.3z M109.5,241.3
			c-1.1,0-2,0.2-2.6,0.6s-0.9,0.9-0.9,1.7c0,0.7,0.3,1.3,0.9,1.7c0.6,0.4,1.4,0.6,2.5,0.6h2c1.1,0,2-0.2,2.6-0.6s0.9-0.9,0.9-1.7
			c0-0.7-0.3-1.3-0.9-1.7s-1.4-0.6-2.6-0.6H109.5z"/>
		<path class="st0" d="M110.4,238.2l-4.9-0.5v-5h0.8v4.3l3.4,0.3c-0.4-0.5-0.5-1.2-0.5-1.9c0-0.9,0.3-1.6,0.9-2.1s1.4-0.8,2.3-0.8
			c1,0,1.9,0.3,2.4,0.8s0.9,1.2,0.9,2.2c0,0.9-0.2,1.6-0.7,2.1c-0.5,0.5-1.2,0.8-2,0.9v-0.8c0.7-0.1,1.2-0.3,1.5-0.7
			c0.3-0.4,0.5-0.9,0.5-1.6c0-0.7-0.2-1.2-0.7-1.6s-1.1-0.5-1.9-0.5c-0.7,0-1.3,0.2-1.8,0.6c-0.5,0.4-0.7,1-0.7,1.7
			c0,0.4,0,0.7,0.1,1c0.1,0.3,0.3,0.6,0.6,0.9L110.4,238.2z"/>
		<path class="st0" d="M115,230.9c-0.2,0-0.3-0.1-0.4-0.2c-0.1-0.1-0.2-0.2-0.2-0.4c0-0.2,0.1-0.3,0.2-0.4c0.1-0.1,0.2-0.2,0.4-0.2
			s0.3,0.1,0.4,0.2c0.1,0.1,0.2,0.2,0.2,0.4c0,0.2-0.1,0.3-0.2,0.4C115.3,230.9,115.1,230.9,115,230.9z"/>
		<path class="st0" d="M115.5,218v6.2h-0.6l-3.9-3.4c-0.7-0.6-1.2-1-1.6-1.2s-0.8-0.3-1.2-0.3c-0.6,0-1.1,0.2-1.5,0.6
			c-0.4,0.4-0.6,0.9-0.6,1.5c0,0.7,0.2,1.2,0.6,1.6s1,0.6,1.7,0.6v0.8c-0.6,0-1.1-0.1-1.5-0.4s-0.8-0.6-1.1-1.1
			c-0.3-0.5-0.4-1-0.4-1.6c0-0.9,0.2-1.6,0.7-2.1s1.1-0.8,2-0.8c0.5,0,1,0.1,1.5,0.4s1.2,0.8,2.1,1.5l3.1,2.8V218H115.5z"/>
		<path class="st0" d="M111.3,210.5c1.4,0,2.5,0.3,3.2,0.8c0.7,0.5,1.1,1.3,1.1,2.3c0,1-0.4,1.7-1.1,2.3c-0.7,0.5-1.8,0.8-3.1,0.8
			h-1.8c-1.4,0-2.5-0.3-3.2-0.8s-1.1-1.3-1.1-2.3c0-1,0.3-1.7,1-2.3c0.7-0.5,1.7-0.8,3.1-0.8H111.3z M109.5,211.3
			c-1.1,0-2,0.2-2.6,0.6s-0.9,0.9-0.9,1.7c0,0.7,0.3,1.3,0.9,1.7c0.6,0.4,1.4,0.6,2.5,0.6h2c1.1,0,2-0.2,2.6-0.6s0.9-0.9,0.9-1.7
			c0-0.7-0.3-1.3-0.9-1.7s-1.4-0.6-2.6-0.6H109.5z"/>
		<path class="st0" d="M115.5,204.9v0.8h-9l1,2.7h-0.8l-1.3-3.4v-0.1H115.5z"/>
		<path class="st0" d="M106,194.8l9.5,4.3v0.9l-9.3-4.2v5.7h-0.7v-6.5H106z"/>
		<path class="st0" d="M137,259.3c1.4,0,2.5,0.3,3.2,0.8c0.7,0.5,1.1,1.3,1.1,2.3c0,1-0.4,1.7-1.1,2.3c-0.7,0.5-1.8,0.8-3.1,0.8
			h-1.8c-1.4,0-2.5-0.3-3.2-0.8c-0.7-0.5-1.1-1.3-1.1-2.3c0-1,0.3-1.7,1-2.3s1.7-0.8,3.1-0.8H137z M135.2,260.2
			c-1.1,0-2,0.2-2.6,0.6c-0.6,0.4-0.9,0.9-0.9,1.7c0,0.7,0.3,1.3,0.9,1.7c0.6,0.4,1.4,0.6,2.5,0.6h2c1.1,0,2-0.2,2.6-0.6
			s0.9-0.9,0.9-1.7c0-0.7-0.3-1.3-0.9-1.7s-1.4-0.6-2.6-0.6H135.2z"/>
		<path class="st0" d="M141.2,253.8v0.8h-9l1,2.7h-0.8l-1.3-3.4v-0.1H141.2z"/>
		<path class="st0" d="M140.7,249.8c-0.2,0-0.3-0.1-0.4-0.2s-0.2-0.2-0.2-0.4c0-0.2,0.1-0.3,0.2-0.4c0.1-0.1,0.2-0.2,0.4-0.2
			c0.2,0,0.3,0.1,0.4,0.2c0.1,0.1,0.2,0.2,0.2,0.4c0,0.2-0.1,0.3-0.2,0.4C141,249.7,140.8,249.8,140.7,249.8z"/>
		<path class="st0" d="M137,240.5c1.4,0,2.5,0.3,3.2,0.8c0.7,0.5,1.1,1.3,1.1,2.3c0,1-0.4,1.7-1.1,2.3c-0.7,0.5-1.8,0.8-3.1,0.8
			h-1.8c-1.4,0-2.5-0.3-3.2-0.8c-0.7-0.5-1.1-1.3-1.1-2.3c0-1,0.3-1.7,1-2.3s1.7-0.8,3.1-0.8H137z M135.2,241.3
			c-1.1,0-2,0.2-2.6,0.6c-0.6,0.4-0.9,0.9-0.9,1.7c0,0.7,0.3,1.3,0.9,1.7c0.6,0.4,1.4,0.6,2.5,0.6h2c1.1,0,2-0.2,2.6-0.6
			s0.9-0.9,0.9-1.7c0-0.7-0.3-1.3-0.9-1.7s-1.4-0.6-2.6-0.6H135.2z"/>
		<path class="st0" d="M138,233.7v-1.6h0.7v1.6h2.5v0.8h-2.5v4.7h-0.5l-7-4.6v-0.9H138z M138,238.2v-3.7h-5.7l0.6,0.4L138,238.2z"/>
		<path class="st0" d="M140.7,230.9c-0.2,0-0.3-0.1-0.4-0.2s-0.2-0.2-0.2-0.4c0-0.2,0.1-0.3,0.2-0.4c0.1-0.1,0.2-0.2,0.4-0.2
			c0.2,0,0.3,0.1,0.4,0.2c0.1,0.1,0.2,0.2,0.2,0.4c0,0.2-0.1,0.3-0.2,0.4C141,230.9,140.8,230.9,140.7,230.9z"/>
		<path class="st0" d="M141.2,218v6.2h-0.6l-3.9-3.4c-0.7-0.6-1.2-1-1.6-1.2s-0.8-0.3-1.2-0.3c-0.6,0-1.1,0.2-1.5,0.6
			s-0.6,0.9-0.6,1.5c0,0.7,0.2,1.2,0.6,1.6c0.4,0.4,1,0.6,1.7,0.6v0.8c-0.6,0-1.1-0.1-1.5-0.4c-0.5-0.3-0.8-0.6-1.1-1.1
			c-0.3-0.5-0.4-1-0.4-1.6c0-0.9,0.2-1.6,0.7-2.1s1.1-0.8,2-0.8c0.5,0,1,0.1,1.5,0.4c0.6,0.3,1.2,0.8,2.1,1.5l3.1,2.8V218H141.2z"/>
		<path class="st0" d="M137,210.5c1.4,0,2.5,0.3,3.2,0.8c0.7,0.5,1.1,1.3,1.1,2.3c0,1-0.4,1.7-1.1,2.3c-0.7,0.5-1.8,0.8-3.1,0.8
			h-1.8c-1.4,0-2.5-0.3-3.2-0.8c-0.7-0.5-1.1-1.3-1.1-2.3c0-1,0.3-1.7,1-2.3s1.7-0.8,3.1-0.8H137z M135.2,211.3
			c-1.1,0-2,0.2-2.6,0.6c-0.6,0.4-0.9,0.9-0.9,1.7c0,0.7,0.3,1.3,0.9,1.7c0.6,0.4,1.4,0.6,2.5,0.6h2c1.1,0,2-0.2,2.6-0.6
			s0.9-0.9,0.9-1.7c0-0.7-0.3-1.3-0.9-1.7s-1.4-0.6-2.6-0.6H135.2z"/>
		<path class="st0" d="M141.2,204.9v0.8h-9l1,2.7h-0.8l-1.3-3.4v-0.1H141.2z"/>
		<path class="st0" d="M131.7,194.8l9.5,4.3v0.9l-9.3-4.2v5.7h-0.7v-6.5H131.7z"/>
		<path class="st0" d="M162.7,259.3c1.4,0,2.5,0.3,3.2,0.8c0.7,0.5,1.1,1.3,1.1,2.3c0,1-0.4,1.7-1.1,2.3c-0.7,0.5-1.8,0.8-3.1,0.8
			H161c-1.4,0-2.5-0.3-3.2-0.8c-0.7-0.5-1.1-1.3-1.1-2.3c0-1,0.3-1.7,1-2.3c0.7-0.5,1.7-0.8,3.1-0.8H162.7z M160.9,260.2
			c-1.1,0-2,0.2-2.6,0.6c-0.6,0.4-0.9,0.9-0.9,1.7c0,0.7,0.3,1.3,0.9,1.7c0.6,0.4,1.4,0.6,2.5,0.6h2c1.1,0,2-0.2,2.6-0.6
			s0.9-0.9,0.9-1.7c0-0.7-0.3-1.3-0.9-1.7s-1.4-0.6-2.6-0.6H160.9z"/>
		<path class="st0" d="M166.9,253.8v0.8h-9l1,2.7h-0.8l-1.3-3.4v-0.1H166.9z"/>
		<path class="st0" d="M166.4,249.8c-0.2,0-0.3-0.1-0.4-0.2c-0.1-0.1-0.2-0.2-0.2-0.4c0-0.2,0.1-0.3,0.2-0.4
			c0.1-0.1,0.2-0.2,0.4-0.2c0.2,0,0.3,0.1,0.4,0.2c0.1,0.1,0.2,0.2,0.2,0.4c0,0.2-0.1,0.3-0.2,0.4
			C166.7,249.7,166.5,249.8,166.4,249.8z"/>
		<path class="st0" d="M162.7,240.5c1.4,0,2.5,0.3,3.2,0.8c0.7,0.5,1.1,1.3,1.1,2.3c0,1-0.4,1.7-1.1,2.3c-0.7,0.5-1.8,0.8-3.1,0.8
			H161c-1.4,0-2.5-0.3-3.2-0.8c-0.7-0.5-1.1-1.3-1.1-2.3c0-1,0.3-1.7,1-2.3c0.7-0.5,1.7-0.8,3.1-0.8H162.7z M160.9,241.3
			c-1.1,0-2,0.2-2.6,0.6c-0.6,0.4-0.9,0.9-0.9,1.7c0,0.7,0.3,1.3,0.9,1.7c0.6,0.4,1.4,0.6,2.5,0.6h2c1.1,0,2-0.2,2.6-0.6
			s0.9-0.9,0.9-1.7c0-0.7-0.3-1.3-0.9-1.7s-1.4-0.6-2.6-0.6H160.9z"/>
		<path class="st0" d="M163.7,233.7v-1.6h0.7v1.6h2.5v0.8h-2.5v4.7h-0.5l-7-4.6v-0.9H163.7z M163.7,238.2v-3.7H158l0.6,0.4
			L163.7,238.2z"/>
		<path class="st0" d="M166.4,230.9c-0.2,0-0.3-0.1-0.4-0.2c-0.1-0.1-0.2-0.2-0.2-0.4c0-0.2,0.1-0.3,0.2-0.4
			c0.1-0.1,0.2-0.2,0.4-0.2c0.2,0,0.3,0.1,0.4,0.2c0.1,0.1,0.2,0.2,0.2,0.4c0,0.2-0.1,0.3-0.2,0.4
			C166.7,230.9,166.5,230.9,166.4,230.9z"/>
		<path class="st0" d="M166.9,218v6.2h-0.6l-3.9-3.4c-0.7-0.6-1.2-1-1.6-1.2s-0.8-0.3-1.2-0.3c-0.6,0-1.1,0.2-1.5,0.6
			c-0.4,0.4-0.6,0.9-0.6,1.5c0,0.7,0.2,1.2,0.6,1.6c0.4,0.4,1,0.6,1.7,0.6v0.8c-0.6,0-1.1-0.1-1.5-0.4c-0.5-0.3-0.8-0.6-1.1-1.1
			s-0.4-1-0.4-1.6c0-0.9,0.2-1.6,0.7-2.1s1.1-0.8,2-0.8c0.5,0,1,0.1,1.5,0.4c0.6,0.3,1.2,0.8,2.1,1.5l3.1,2.8V218H166.9z"/>
		<path class="st0" d="M162.7,210.5c1.4,0,2.5,0.3,3.2,0.8c0.7,0.5,1.1,1.3,1.1,2.3c0,1-0.4,1.7-1.1,2.3c-0.7,0.5-1.8,0.8-3.1,0.8
			H161c-1.4,0-2.5-0.3-3.2-0.8c-0.7-0.5-1.1-1.3-1.1-2.3c0-1,0.3-1.7,1-2.3c0.7-0.5,1.7-0.8,3.1-0.8H162.7z M160.9,211.3
			c-1.1,0-2,0.2-2.6,0.6c-0.6,0.4-0.9,0.9-0.9,1.7c0,0.7,0.3,1.3,0.9,1.7c0.6,0.4,1.4,0.6,2.5,0.6h2c1.1,0,2-0.2,2.6-0.6
			s0.9-0.9,0.9-1.7c0-0.7-0.3-1.3-0.9-1.7s-1.4-0.6-2.6-0.6H160.9z"/>
		<path class="st0" d="M166.9,204.9v0.8h-9l1,2.7h-0.8l-1.3-3.4v-0.1H166.9z"/>
		<path class="st0" d="M157.4,194.8l9.5,4.3v0.9l-9.3-4.2v5.7h-0.7v-6.5H157.4z"/>
		<path class="st0" d="M188.4,259.3c1.4,0,2.5,0.3,3.2,0.8c0.7,0.5,1.1,1.3,1.1,2.3c0,1-0.4,1.7-1.1,2.3c-0.7,0.5-1.8,0.8-3.1,0.8
			h-1.8c-1.4,0-2.5-0.3-3.2-0.8c-0.7-0.5-1.1-1.3-1.1-2.3c0-1,0.3-1.7,1-2.3s1.7-0.8,3.1-0.8H188.4z M186.6,260.2
			c-1.1,0-2,0.2-2.6,0.6c-0.6,0.4-0.9,0.9-0.9,1.7c0,0.7,0.3,1.3,0.9,1.7c0.6,0.4,1.4,0.6,2.5,0.6h2c1.1,0,2-0.2,2.6-0.6
			s0.9-0.9,0.9-1.7c0-0.7-0.3-1.3-0.9-1.7s-1.4-0.6-2.6-0.6H186.6z"/>
		<path class="st0" d="M192.6,253.8v0.8h-9l1,2.7h-0.8l-1.3-3.4v-0.1H192.6z"/>
		<path class="st0" d="M192.1,249.8c-0.2,0-0.3-0.1-0.4-0.2s-0.2-0.2-0.2-0.4c0-0.2,0.1-0.3,0.2-0.4c0.1-0.1,0.2-0.2,0.4-0.2
			c0.2,0,0.3,0.1,0.4,0.2c0.1,0.1,0.2,0.2,0.2,0.4c0,0.2-0.1,0.3-0.2,0.4C192.4,249.7,192.2,249.8,192.1,249.8z"/>
		<path class="st0" d="M188.4,240.5c1.4,0,2.5,0.3,3.2,0.8c0.7,0.5,1.1,1.3,1.1,2.3c0,1-0.4,1.7-1.1,2.3c-0.7,0.5-1.8,0.8-3.1,0.8
			h-1.8c-1.4,0-2.5-0.3-3.2-0.8c-0.7-0.5-1.1-1.3-1.1-2.3c0-1,0.3-1.7,1-2.3s1.7-0.8,3.1-0.8H188.4z M186.6,241.3
			c-1.1,0-2,0.2-2.6,0.6c-0.6,0.4-0.9,0.9-0.9,1.7c0,0.7,0.3,1.3,0.9,1.7c0.6,0.4,1.4,0.6,2.5,0.6h2c1.1,0,2-0.2,2.6-0.6
			s0.9-0.9,0.9-1.7c0-0.7-0.3-1.3-0.9-1.7s-1.4-0.6-2.6-0.6H186.6z"/>
		<path class="st0" d="M187.5,238.2l-4.9-0.5v-5h0.8v4.3l3.4,0.3c-0.4-0.5-0.5-1.2-0.5-1.9c0-0.9,0.3-1.6,0.9-2.1
			c0.6-0.5,1.4-0.8,2.3-0.8c1,0,1.9,0.3,2.4,0.8c0.6,0.5,0.9,1.2,0.9,2.2c0,0.9-0.2,1.6-0.7,2.1c-0.5,0.5-1.2,0.8-2,0.9v-0.8
			c0.7-0.1,1.2-0.3,1.5-0.7c0.3-0.4,0.5-0.9,0.5-1.6c0-0.7-0.2-1.2-0.7-1.6s-1.1-0.5-1.9-0.5c-0.7,0-1.3,0.2-1.8,0.6
			c-0.5,0.4-0.7,1-0.7,1.7c0,0.4,0,0.7,0.1,1c0.1,0.3,0.3,0.6,0.6,0.9L187.5,238.2z"/>
		<path class="st0" d="M192.1,230.9c-0.2,0-0.3-0.1-0.4-0.2s-0.2-0.2-0.2-0.4c0-0.2,0.1-0.3,0.2-0.4c0.1-0.1,0.2-0.2,0.4-0.2
			c0.2,0,0.3,0.1,0.4,0.2c0.1,0.1,0.2,0.2,0.2,0.4c0,0.2-0.1,0.3-0.2,0.4C192.4,230.9,192.2,230.9,192.1,230.9z"/>
		<path class="st0" d="M192.6,218v6.2h-0.6l-3.9-3.4c-0.7-0.6-1.2-1-1.6-1.2s-0.8-0.3-1.2-0.3c-0.6,0-1.1,0.2-1.5,0.6
			s-0.6,0.9-0.6,1.5c0,0.7,0.2,1.2,0.6,1.6c0.4,0.4,1,0.6,1.7,0.6v0.8c-0.6,0-1.1-0.1-1.5-0.4c-0.5-0.3-0.8-0.6-1.1-1.1
			c-0.3-0.5-0.4-1-0.4-1.6c0-0.9,0.2-1.6,0.7-2.1s1.1-0.8,2-0.8c0.5,0,1,0.1,1.5,0.4c0.6,0.3,1.2,0.8,2.1,1.5l3.1,2.8V218H192.6z"/>
		<path class="st0" d="M188.4,210.5c1.4,0,2.5,0.3,3.2,0.8c0.7,0.5,1.1,1.3,1.1,2.3c0,1-0.4,1.7-1.1,2.3c-0.7,0.5-1.8,0.8-3.1,0.8
			h-1.8c-1.4,0-2.5-0.3-3.2-0.8c-0.7-0.5-1.1-1.3-1.1-2.3c0-1,0.3-1.7,1-2.3s1.7-0.8,3.1-0.8H188.4z M186.6,211.3
			c-1.1,0-2,0.2-2.6,0.6c-0.6,0.4-0.9,0.9-0.9,1.7c0,0.7,0.3,1.3,0.9,1.7c0.6,0.4,1.4,0.6,2.5,0.6h2c1.1,0,2-0.2,2.6-0.6
			s0.9-0.9,0.9-1.7c0-0.7-0.3-1.3-0.9-1.7s-1.4-0.6-2.6-0.6H186.6z"/>
		<path class="st0" d="M192.6,204.9v0.8h-9l1,2.7h-0.8l-1.3-3.4v-0.1H192.6z"/>
		<path class="st0" d="M183.1,194.8l9.5,4.3v0.9l-9.3-4.2v5.7h-0.7v-6.5H183.1z"/>
		<path class="st0" d="M214.1,259.3c1.4,0,2.5,0.3,3.2,0.8c0.7,0.5,1.1,1.3,1.1,2.3c0,1-0.4,1.7-1.1,2.3c-0.7,0.5-1.8,0.8-3.1,0.8
			h-1.8c-1.4,0-2.5-0.3-3.2-0.8c-0.7-0.5-1.1-1.3-1.1-2.3c0-1,0.3-1.7,1-2.3s1.7-0.8,3.1-0.8H214.1z M212.3,260.2
			c-1.1,0-2,0.2-2.6,0.6c-0.6,0.4-0.9,0.9-0.9,1.7c0,0.7,0.3,1.3,0.9,1.7c0.6,0.4,1.4,0.6,2.5,0.6h2c1.1,0,2-0.2,2.6-0.6
			s0.9-0.9,0.9-1.7c0-0.7-0.3-1.3-0.9-1.7s-1.4-0.6-2.6-0.6H212.3z"/>
		<path class="st0" d="M218.3,253.8v0.8h-9l1,2.7h-0.8l-1.3-3.4v-0.1H218.3z"/>
		<path class="st0" d="M217.8,249.8c-0.2,0-0.3-0.1-0.4-0.2s-0.2-0.2-0.2-0.4c0-0.2,0.1-0.3,0.2-0.4c0.1-0.1,0.2-0.2,0.4-0.2
			c0.2,0,0.3,0.1,0.4,0.2c0.1,0.1,0.2,0.2,0.2,0.4c0,0.2-0.1,0.3-0.2,0.4C218.1,249.7,217.9,249.8,217.8,249.8z"/>
		<path class="st0" d="M214.1,240.5c1.4,0,2.5,0.3,3.2,0.8c0.7,0.5,1.1,1.3,1.1,2.3c0,1-0.4,1.7-1.1,2.3c-0.7,0.5-1.8,0.8-3.1,0.8
			h-1.8c-1.4,0-2.5-0.3-3.2-0.8c-0.7-0.5-1.1-1.3-1.1-2.3c0-1,0.3-1.7,1-2.3s1.7-0.8,3.1-0.8H214.1z M212.3,241.3
			c-1.1,0-2,0.2-2.6,0.6c-0.6,0.4-0.9,0.9-0.9,1.7c0,0.7,0.3,1.3,0.9,1.7c0.6,0.4,1.4,0.6,2.5,0.6h2c1.1,0,2-0.2,2.6-0.6
			s0.9-0.9,0.9-1.7c0-0.7-0.3-1.3-0.9-1.7s-1.4-0.6-2.6-0.6H212.3z"/>
		<path class="st0" d="M215.1,233.7v-1.6h0.7v1.6h2.5v0.8h-2.5v4.7h-0.5l-7-4.6v-0.9H215.1z M215.1,238.2v-3.7h-5.7l0.6,0.4
			L215.1,238.2z"/>
		<path class="st0" d="M217.8,230.9c-0.2,0-0.3-0.1-0.4-0.2s-0.2-0.2-0.2-0.4c0-0.2,0.1-0.3,0.2-0.4c0.1-0.1,0.2-0.2,0.4-0.2
			c0.2,0,0.3,0.1,0.4,0.2c0.1,0.1,0.2,0.2,0.2,0.4c0,0.2-0.1,0.3-0.2,0.4C218.1,230.9,217.9,230.9,217.8,230.9z"/>
		<path class="st0" d="M218.3,218v6.2h-0.6l-3.9-3.4c-0.7-0.6-1.2-1-1.6-1.2s-0.8-0.3-1.2-0.3c-0.6,0-1.1,0.2-1.5,0.6
			s-0.6,0.9-0.6,1.5c0,0.7,0.2,1.2,0.6,1.6c0.4,0.4,1,0.6,1.7,0.6v0.8c-0.6,0-1.1-0.1-1.5-0.4c-0.5-0.3-0.8-0.6-1.1-1.1
			c-0.3-0.5-0.4-1-0.4-1.6c0-0.9,0.2-1.6,0.7-2.1s1.1-0.8,2-0.8c0.5,0,1,0.1,1.5,0.4c0.6,0.3,1.2,0.8,2.1,1.5l3.1,2.8V218H218.3z"/>
		<path class="st0" d="M214.1,210.5c1.4,0,2.5,0.3,3.2,0.8c0.7,0.5,1.1,1.3,1.1,2.3c0,1-0.4,1.7-1.1,2.3c-0.7,0.5-1.8,0.8-3.1,0.8
			h-1.8c-1.4,0-2.5-0.3-3.2-0.8c-0.7-0.5-1.1-1.3-1.1-2.3c0-1,0.3-1.7,1-2.3s1.7-0.8,3.1-0.8H214.1z M212.3,211.3
			c-1.1,0-2,0.2-2.6,0.6c-0.6,0.4-0.9,0.9-0.9,1.7c0,0.7,0.3,1.3,0.9,1.7c0.6,0.4,1.4,0.6,2.5,0.6h2c1.1,0,2-0.2,2.6-0.6
			s0.9-0.9,0.9-1.7c0-0.7-0.3-1.3-0.9-1.7s-1.4-0.6-2.6-0.6H212.3z"/>
		<path class="st0" d="M218.3,204.9v0.8h-9l1,2.7h-0.8l-1.3-3.4v-0.1H218.3z"/>
		<path class="st0" d="M208.8,194.8l9.5,4.3v0.9l-9.3-4.2v5.7h-0.7v-6.5H208.8z"/>
	</g>
	<path class="st3" d="M12.3,177.1c0,1.9-1.6,3.5-3.5,3.5l0,0c-1.9,0-3.5-1.6-3.5-3.5l0,0c0-1.9,1.6-3.5,3.5-3.5l0,0
		C10.8,173.6,12.3,175.2,12.3,177.1L12.3,177.1z"/>
	<path class="st3" d="M39.5,177c0,1.9-1.6,3.5-3.5,3.5l0,0c-1.9,0-3.5-1.6-3.5-3.5l0,0c0-1.9,1.6-3.5,3.5-3.5l0,0
		C37.9,173.5,39.5,175,39.5,177L39.5,177z"/>
	<path class="st3" d="M68.1,177.1c0,1.9-1.6,3.5-3.5,3.5l0,0c-1.9,0-3.5-1.6-3.5-3.5l0,0c0-1.9,1.6-3.5,3.5-3.5l0,0
		C66.5,173.6,68.1,175.2,68.1,177.1L68.1,177.1z"/>
	<path class="st3" d="M98.2,177c0,1.9-1.6,3.5-3.5,3.5l0,0c-1.9,0-3.5-1.6-3.5-3.5l0,0c0-1.9,1.6-3.5,3.5-3.5l0,0
		C96.6,173.5,98.2,175,98.2,177L98.2,177z"/>
	<path class="st3" d="M128.8,177c0,1.9-1.6,3.5-3.5,3.5l0,0c-1.9,0-3.5-1.6-3.5-3.5l0,0c0-1.9,1.6-3.5,3.5-3.5l0,0
		C127.3,173.5,128.8,175,128.8,177L128.8,177z"/>
	<path class="st3" d="M159,177c0,1.9-1.6,3.5-3.5,3.5l0,0c-1.9,0-3.5-1.6-3.5-3.5l0,0c0-1.9,1.6-3.5,3.5-3.5l0,0
		C157.5,173.5,159,175,159,177L159,177z"/>
	<path class="st3" d="M190.9,177c0,1.9-1.6,3.5-3.5,3.5l0,0c-1.9,0-3.5-1.6-3.5-3.5l0,0c0-1.9,1.6-3.5,3.5-3.5l0,0
		C189.3,173.5,190.9,175,190.9,177L190.9,177z"/>
	<path class="st3" d="M221.3,177c0,1.9-1.6,3.5-3.5,3.5l0,0c-1.9,0-3.5-1.6-3.5-3.5l0,0c0-1.9,1.6-3.5,3.5-3.5l0,0
		C219.7,173.5,221.3,175,221.3,177L221.3,177z"/>
</g>
</svg>
