<?xml version="1.0" encoding="utf-8"?>
<!-- Generator: Adobe Illustrator 16.0.0, SVG Export Plug-In . SVG Version: 6.00 Build 0)  -->
<!DOCTYPE svg PUBLIC "-//W3C//DTD SVG 1.1//EN" "http://www.w3.org/Graphics/SVG/1.1/DTD/svg11.dtd">
<svg version="1.1" id="Layer_1" xmlns="http://www.w3.org/2000/svg" xmlns:xlink="http://www.w3.org/1999/xlink" x="0px" y="0px"
	 width="59.1px" height="55.3px" viewBox="0 0 59.1 55.3" style="enable-background:new 0 0 59.1 55.3;" xml:space="preserve">
<style type="text/css">
<![CDATA[
	.st0{fill:#8893A6;}
	.st1{fill:#BAC5DA;}
]]>
</style>
<g>
	<path class="st0" d="M12.2,7.5c0-0.2,9.6,30.9,39.3,36.2l-4.3,4.7c0,0-25.3-0.5-39.8-35.3L12.2,7.5z"/>
	<path class="st0" d="M47,7.7c0-0.2-9.6,30.9-39.3,36.2l4.3,4.7c0,0,25.3-0.5,39.8-35.3L47,7.7z"/>
	<path class="st1" d="M12,48.6c0,0.2,10.2-30.2,39.8-35.4L47,7.8c0,0-25.3,0.5-39.8,35.3L12,48.6z"/>
	<path class="st1" d="M47.2,48.4C47.2,48.6,37,18.2,7.3,13l4.9-5.4c0,0,25.3,0.5,39.8,35.3L47.2,48.4z"/>
	<circle class="st1" cx="30" cy="5" r="4.5"/>
	<circle class="st1" cx="54" cy="27.2" r="4.5"/>
	<circle class="st1" cx="29.6" cy="50.3" r="4.5"/>
	<circle class="st1" cx="5" cy="26.8" r="4.5"/>
</g>
</svg>
